<svg width="28" height="27" viewBox="0 0 28 27" fill="none" xmlns="http://www.w3.org/2000/svg">
<g clip-path="url(#clip0_3554_5448)">
<path d="M27.4067 22.1895L16.1407 2.18951C15.9104 1.79127 15.5793 1.46062 15.1808 1.23076C14.7823 1.00089 14.3303 0.879883 13.8702 0.879883C13.4102 0.879883 12.9582 1.00089 12.5597 1.23076C12.1611 1.46062 11.8301 1.79127 11.5997 2.18951L0.333717 22.1895C0.109394 22.5885 -0.00728718 23.0391 -0.00484526 23.4968C-0.00240333 23.9546 0.119066 24.4038 0.347633 24.8004C0.5762 25.197 0.904025 25.5274 1.29887 25.759C1.69371 25.9906 2.14199 26.1155 2.59971 26.1215H25.0437C25.5066 26.1244 25.9623 26.0068 26.3659 25.7801C26.7696 25.5534 27.1072 25.2256 27.3456 24.8288C27.5841 24.4321 27.7151 23.98 27.7258 23.5173C27.7365 23.0545 27.6265 22.5969 27.4067 22.1895V22.1895ZM2.60673 23.4995L13.8727 3.49951L25.1387 23.4995H2.60673Z" fill="#EF8930"/>
<path d="M12.0366 12.6707L12.7366 17.2997C12.7787 17.5696 12.9166 17.8153 13.125 17.9918C13.3335 18.1683 13.5985 18.2638 13.8717 18.2607V18.2607C14.1409 18.2499 14.3987 18.1495 14.6044 17.9754C14.81 17.8013 14.9516 17.5635 15.0067 17.2997L15.7066 12.6707C15.7481 12.4081 15.7314 12.1396 15.6578 11.8841C15.5841 11.6286 15.4554 11.3924 15.2805 11.1921C15.1056 10.9918 14.8888 10.8324 14.6456 10.725C14.4023 10.6177 14.1385 10.565 13.8726 10.5707V10.5707C13.609 10.5724 13.3487 10.63 13.109 10.7398C12.8692 10.8496 12.6555 11.009 12.4819 11.2075C12.3084 11.406 12.1789 11.639 12.1022 11.8913C12.0254 12.1435 12.0031 12.4092 12.0366 12.6707V12.6707Z" fill="#EF8930"/>
<path d="M13.8703 21.3167C14.4491 21.3167 14.9183 20.8475 14.9183 20.2687C14.9183 19.6899 14.4491 19.2207 13.8703 19.2207C13.2915 19.2207 12.8223 19.6899 12.8223 20.2687C12.8223 20.8475 13.2915 21.3167 13.8703 21.3167Z" fill="#EF8930"/>
</g>
<defs>
<clipPath id="clip0_3554_5448">
<rect width="27.739" height="25.239" fill="white" transform="translate(0 0.880859)"/>
</clipPath>
</defs>
</svg>
