<?xml version="1.0" encoding="utf-8"?>
<!-- Generator: Adobe Illustrator 24.1.0, SVG Export Plug-In . SVG Version: 6.00 Build 0)  -->
<svg version="1.1" id="Capa_1" xmlns="http://www.w3.org/2000/svg" xmlns:xlink="http://www.w3.org/1999/xlink" x="0px" y="0px"
	 viewBox="0 0 120 120" style="enable-background:new 0 0 120 120;" xml:space="preserve">
<style type="text/css">
	.st0{fill:#440099;}
	.st1{opacity:0.4;}
	.st2{fill:#FF6A13;}
	.st3{fill:#FFFFFF;}
</style>
<g>
	<g>
		<g>
			<g>
				<path class="st0" d="M94.72,88.47h-79.6c-8.02,0-14.54-6.52-14.54-14.54v-58.7C0.58,7.22,7.1,0.7,15.12,0.7h79.6
					c8.02,0,14.54,6.52,14.54,14.54v58.7C109.26,81.95,102.73,88.47,94.72,88.47z M16.03,10.14c-3.18,0-5.77,2.59-5.77,5.77v57.35
					c0,3.18,2.59,5.77,5.77,5.77H93.8c3.18,0,5.77-2.59,5.77-5.77V15.91c0-3.18-2.59-5.77-5.77-5.77H16.03z"/>
			</g>
		</g>
		<g>
			<g>
				<path class="st0" d="M72.88,119.01H36.92c-2.38,0-4.31-1.93-4.31-4.31c0-2.39,1.93-4.31,4.31-4.31h35.97
					c2.38,0,4.31,1.93,4.31,4.31C77.2,117.08,75.27,119.01,72.88,119.01z"/>
			</g>
		</g>
		<g>
			<g>
				<path class="st0" d="M54.89,115.32c0,0-0.01,0-0.01,0c-2.38,0-4.31-1.94-4.3-4.33l0.02-12.39c0.01-2.38,1.94-4.3,4.31-4.3
					c0,0,0.01,0,0.01,0c2.38,0,4.31,1.94,4.3,4.33l-0.02,12.39C59.2,113.4,57.27,115.32,54.89,115.32z"/>
			</g>
		</g>
	</g>
	<g class="st1">
		<path class="st0" d="M82.1,31.83H23.44c-2.48,0-4.49-2.01-4.49-4.49s2.01-4.49,4.49-4.49H82.1c2.48,0,4.49,2.01,4.49,4.49
			S84.58,31.83,82.1,31.83z"/>
	</g>
	<g class="st1">
		<path class="st0" d="M82.1,49.07H23.44c-2.48,0-4.49-2.01-4.49-4.49c0-2.48,2.01-4.49,4.49-4.49H82.1c2.48,0,4.49,2.01,4.49,4.49
			C86.59,47.07,84.58,49.07,82.1,49.07z"/>
	</g>
	<g>
		<path class="st2" d="M47.58,66.32H23.44c-2.48,0-4.49-2.01-4.49-4.49s2.01-4.49,4.49-4.49h24.15c2.48,0,4.49,2.01,4.49,4.49
			S50.06,66.32,47.58,66.32z"/>
	</g>
	<g>
		<path class="st2" d="M110.71,66.77l-3.05,1.09c-0.49,0.18-1.04,0.04-1.37-0.37c-0.3-0.37-0.62-0.72-0.95-1.06
			c-0.36-0.37-0.45-0.93-0.23-1.39l1.38-2.93c0.3-0.62,0.03-1.37-0.6-1.66l-5.33-2.52c-0.62-0.3-1.37-0.03-1.66,0.6l-1.38,2.93
			c-0.22,0.47-0.71,0.76-1.22,0.71c-0.47-0.04-0.94-0.07-1.42-0.07c-0.52,0-0.98-0.34-1.15-0.83l-1.09-3.05
			c-0.23-0.65-0.95-0.99-1.6-0.76l-1.07,0.38l-4.47,1.6c-0.65,0.23-0.99,0.95-0.76,1.6l1.09,3.05c0.18,0.49,0.04,1.04-0.37,1.37
			c-0.37,0.3-0.72,0.62-1.06,0.95c-0.37,0.36-0.93,0.45-1.39,0.23l-2.93-1.38c-0.62-0.3-1.37-0.03-1.66,0.6l-2.52,5.33
			c-0.3,0.62-0.03,1.37,0.6,1.66l2.93,1.38c0.47,0.22,0.76,0.71,0.71,1.22c-0.04,0.47-0.07,0.94-0.07,1.42
			c0,0.52-0.34,0.98-0.83,1.15l-3.05,1.09c-0.65,0.23-0.99,0.95-0.76,1.6l1.99,5.55c0.23,0.65,0.95,0.99,1.6,0.76l3.05-1.09
			c0.49-0.18,1.04-0.04,1.37,0.37c0.3,0.37,0.62,0.72,0.95,1.06c0.36,0.37,0.45,0.93,0.23,1.39l-1.38,2.93
			c-0.3,0.62-0.03,1.37,0.6,1.66l5.33,2.52c0.62,0.3,1.37,0.03,1.66-0.6l1.38-2.93c0.22-0.47,0.71-0.76,1.22-0.71
			c0.47,0.04,0.94,0.07,1.42,0.07c0.52,0,0.98,0.34,1.15,0.83l1.09,3.05c0.23,0.65,0.95,0.99,1.6,0.76l4.47-1.6l1.07-0.38
			c0.65-0.23,0.99-0.95,0.76-1.6l-1.09-3.05c-0.18-0.49-0.04-1.04,0.37-1.37c0.37-0.3,0.72-0.62,1.06-0.95
			c0.37-0.36,0.93-0.45,1.39-0.23l2.93,1.38c0.62,0.3,1.37,0.03,1.66-0.6l2.52-5.33c0.3-0.62,0.03-1.37-0.6-1.66l-2.93-1.38
			c-0.47-0.22-0.76-0.71-0.71-1.22c0.04-0.47,0.07-0.94,0.07-1.42c0-0.52,0.34-0.98,0.83-1.15l3.05-1.09
			c0.65-0.23,0.99-0.95,0.76-1.6l-1.99-5.55C112.08,66.87,111.36,66.53,110.71,66.77z M97.15,83.28c-3.52,1.26-7.41-0.57-8.67-4.1
			c-1.26-3.52,0.57-7.41,4.1-8.67c3.52-1.26,7.41,0.57,8.67,4.1C102.51,78.14,100.68,82.02,97.15,83.28z"/>
		<path class="st3" d="M91.46,57.4c0.51,0,0.99,0.32,1.18,0.83l1.09,3.05c0.17,0.49,0.63,0.83,1.15,0.83c0,0,0,0,0,0
			c0.01,0,0.02,0,0.03,0c0.47,0,0.93,0.02,1.39,0.07c0.04,0,0.07,0.01,0.11,0.01c0.47,0,0.9-0.28,1.11-0.72l1.38-2.93
			c0.21-0.45,0.66-0.72,1.13-0.72c0.18,0,0.36,0.04,0.53,0.12l5.33,2.52c0.62,0.3,0.89,1.04,0.6,1.66l-1.38,2.93
			c-0.22,0.47-0.14,1.03,0.23,1.39c0.33,0.34,0.65,0.69,0.95,1.06c0.23,0.29,0.58,0.44,0.94,0.44c0.14,0,0.29-0.02,0.43-0.07
			l3.05-1.09c0.14-0.05,0.28-0.07,0.42-0.07c0.51,0,0.99,0.32,1.18,0.83l1.99,5.55c0.23,0.65-0.11,1.37-0.76,1.6l-3.05,1.09
			c-0.49,0.18-0.83,0.63-0.83,1.15c0,0.48-0.02,0.95-0.07,1.42c-0.05,0.51,0.24,1,0.71,1.22l2.93,1.38c0.62,0.3,0.89,1.04,0.6,1.66
			l-2.52,5.33c-0.21,0.45-0.66,0.72-1.13,0.72c-0.18,0-0.36-0.04-0.53-0.12l-2.93-1.38c-0.17-0.08-0.36-0.12-0.54-0.12
			c-0.31,0-0.62,0.12-0.85,0.35c-0.34,0.33-0.69,0.65-1.06,0.95c-0.4,0.33-0.54,0.88-0.37,1.37l1.09,3.05
			c0.23,0.65-0.11,1.37-0.76,1.6l-1.07,0.38l-4.47,1.6c-0.14,0.05-0.28,0.07-0.42,0.07c-0.51,0-0.99-0.32-1.18-0.83l-1.09-3.05
			c-0.17-0.49-0.63-0.83-1.15-0.83c0,0,0,0,0,0c-0.01,0-0.02,0-0.03,0c-0.47,0-0.93-0.02-1.39-0.07c-0.04,0-0.07-0.01-0.11-0.01
			c-0.47,0-0.9,0.28-1.11,0.72l-1.38,2.93c-0.21,0.45-0.66,0.72-1.13,0.72c-0.18,0-0.36-0.04-0.53-0.12l-5.33-2.52
			c-0.62-0.3-0.89-1.04-0.6-1.66l1.38-2.93c0.22-0.47,0.14-1.03-0.23-1.39c-0.33-0.34-0.65-0.69-0.95-1.06
			c-0.23-0.29-0.58-0.44-0.94-0.44c-0.14,0-0.29,0.02-0.43,0.07l-3.05,1.09c-0.14,0.05-0.28,0.07-0.42,0.07
			c-0.51,0-0.99-0.32-1.18-0.83l-1.99-5.55c-0.23-0.65,0.11-1.37,0.76-1.6l3.05-1.09c0.49-0.18,0.83-0.63,0.83-1.15
			c0-0.48,0.02-0.95,0.07-1.42c0.05-0.51-0.24-1-0.71-1.22l-2.93-1.38c-0.62-0.3-0.89-1.04-0.6-1.66l2.52-5.33
			c0.21-0.45,0.66-0.72,1.13-0.72c0.18,0,0.36,0.04,0.53,0.12l2.93,1.38c0.17,0.08,0.36,0.12,0.54,0.12c0.31,0,0.62-0.12,0.85-0.35
			c0.34-0.33,0.69-0.65,1.06-0.95c0.4-0.33,0.54-0.88,0.37-1.37l-1.09-3.05c-0.23-0.65,0.11-1.37,0.76-1.6l4.47-1.6l1.07-0.38
			C91.18,57.42,91.32,57.4,91.46,57.4 M94.87,83.68c0.76,0,1.53-0.13,2.29-0.4c3.52-1.26,5.36-5.14,4.1-8.67
			c-0.99-2.77-3.6-4.5-6.38-4.49c-0.76,0-1.53,0.13-2.29,0.4c-3.52,1.26-5.36,5.14-4.1,8.67C89.48,81.95,92.09,83.68,94.87,83.68
			 M91.46,51.77L91.46,51.77c-0.79,0-1.57,0.14-2.32,0.4l-1.07,0.38l-4.47,1.6c-2.44,0.87-4.08,2.99-4.47,5.38
			c-2.48,0.16-4.72,1.66-5.79,3.93l-2.52,5.33c-1.11,2.34-0.77,5,0.64,6.96c-0.42,0.48-0.78,1.02-1.06,1.62
			c-0.78,1.66-0.88,3.53-0.26,5.26l1.99,5.55c0.85,2.38,2.94,4.07,5.38,4.47c0.04,0.64,0.17,1.27,0.39,1.89
			c0.62,1.73,1.88,3.11,3.54,3.9l5.33,2.52c0.91,0.43,1.93,0.66,2.94,0.66c1.47,0,2.87-0.48,4.03-1.31
			c1.23,1.09,2.84,1.73,4.55,1.73c0.79,0,1.57-0.14,2.32-0.4l4.48-1.6l1.07-0.38c2.44-0.87,4.08-2.99,4.47-5.38
			c2.48-0.16,4.72-1.66,5.79-3.92l2.52-5.33c0.78-1.66,0.88-3.53,0.26-5.26c-0.22-0.62-0.52-1.19-0.9-1.71
			c0.42-0.48,0.78-1.02,1.06-1.61c0.78-1.66,0.88-3.53,0.26-5.26l-1.99-5.55c-0.85-2.38-2.94-4.07-5.38-4.47
			c-0.04-0.64-0.17-1.27-0.39-1.89c-0.62-1.73-1.88-3.11-3.54-3.9l-5.33-2.52c-0.91-0.43-1.93-0.66-2.94-0.66
			c-1.47,0-2.87,0.48-4.03,1.31C94.78,52.41,93.17,51.77,91.46,51.77L91.46,51.77z M94.87,78.05c-0.4,0-0.9-0.24-1.09-0.77
			c-0.21-0.6,0.1-1.26,0.7-1.48c0.13-0.05,0.26-0.07,0.39-0.07c0.4,0,0.9,0.24,1.09,0.77c0.13,0.37,0.05,0.68-0.04,0.88
			c-0.09,0.2-0.28,0.46-0.65,0.59C95.13,78.03,95,78.05,94.87,78.05L94.87,78.05z"/>
	</g>
</g>
</svg>
