<?xml version="1.0" encoding="utf-8"?>
<!-- Generator: Adobe Illustrator 24.1.0, SVG Export Plug-In . SVG Version: 6.00 Build 0)  -->
<svg version="1.1" id="Capa_1" xmlns="http://www.w3.org/2000/svg" xmlns:xlink="http://www.w3.org/1999/xlink" x="0px" y="0px"
	 viewBox="0 0 120 120" style="enable-background:new 0 0 120 120;" xml:space="preserve">
<style type="text/css">
	.st0{fill:#FFFFFF;}
	.st1{fill:#440099;}
	.st2{opacity:0.4;}
	.st3{fill:#FF6A13;}
</style>
<g>
	<g>
		<g>
			<path class="st0" d="M68.4,110.41H23.39c-10.46,0-19.03-8.56-19.03-19.03V23.63c0-10.46,8.56-19.03,19.03-19.03H68.4
				c10.46,0,19.03,8.56,19.03,19.03v67.75C87.43,101.85,78.87,110.41,68.4,110.41z"/>
			<path class="st1" d="M76.31,114.91H15.48c-8.61,0-15.62-7.01-15.62-15.62V15.72c0-8.61,7.01-15.62,15.62-15.62h60.83
				c8.61,0,15.62,7.01,15.62,15.62v83.58C91.93,107.91,84.93,114.91,76.31,114.91z M15.48,9.11c-3.65,0-6.61,2.97-6.61,6.61v83.58
				c0,3.65,2.97,6.61,6.61,6.61h60.83c3.65,0,6.61-2.97,6.61-6.61V15.72c0-3.65-2.97-6.61-6.61-6.61H15.48z"/>
		</g>
	</g>
	<g>
		<g class="st2">
			<path class="st1" d="M67.55,58.27h-43.3c-3.73,0-6.76-3.03-6.76-6.76v0c0-3.73,3.03-6.76,6.76-6.76h43.3
				c3.73,0,6.76,3.03,6.76,6.76v0C74.31,55.24,71.28,58.27,67.55,58.27z"/>
		</g>
		<g class="st2">
			<path class="st1" d="M67.55,77.4h-43.3c-3.73,0-6.76-3.03-6.76-6.76v0c0-3.73,3.03-6.76,6.76-6.76h43.3
				c3.73,0,6.76,3.03,6.76,6.76v0C74.31,74.38,71.28,77.4,67.55,77.4z"/>
		</g>
		<g class="st2">
			<path class="st1" d="M67.55,39.13h-43.3c-3.73,0-6.76-3.03-6.76-6.76v0c0-3.73,3.03-6.76,6.76-6.76h43.3
				c3.73,0,6.76,3.03,6.76,6.76v0C74.31,36.11,71.28,39.13,67.55,39.13z"/>
		</g>
	</g>
	<g>
		<path class="st3" d="M108.68,96.05c-0.79,0-1.49,0.31-2.08,0.74l-2.64,1.75c-3.51,2.68-9.09,6.24-15.61,7.93
			c1.7-1.8,2.76-4.21,2.76-6.88c0-0.08-0.02-0.16-0.02-0.24c-1.31,0.47-2.83,0.2-3.88-0.85c-1.46-1.46-1.46-3.82,0-5.28l0.82-0.82
			c3.02,0.54,5.86,1.34,8.4,2.28c0,0,0.79,0.19,1.19,0.19c2.07,0,3.75-1.68,3.75-3.75c0-1.59-1-2.93-2.4-3.47v-0.01
			c-5.07-1.87-11.21-3.37-17.87-3.37c-17.33,0-31.15,10.12-31.72,10.55l-3.45,2.56l3.02,3.06c0.58,0.59,14.5,14.48,32.15,14.48
			c13.81,0,29.93-12.49,29.93-12.49c0.78-0.67,1.31-1.63,1.31-2.74C112.31,97.68,110.68,96.05,108.68,96.05z M74.15,92.35
			c-1.91,1.83-3.11,4.39-3.11,7.24c0,2.68,1.06,5.09,2.77,6.89c-6.74-1.75-12.48-5.49-15.97-8.2
			C61.48,96.25,67.31,93.55,74.15,92.35z"/>
		<path class="st0" d="M81.07,84.26c6.67,0,12.8,1.5,17.87,3.37v0.01c1.4,0.54,2.4,1.88,2.4,3.47c0,2.07-1.68,3.75-3.75,3.75
			c-0.4,0-1.19-0.19-1.19-0.19c-2.53-0.94-5.38-1.74-8.4-2.28l-0.82,0.82c-1.46,1.46-1.46,3.82,0,5.28c0.72,0.72,1.66,1.07,2.6,1.07
			c0.43,0,0.87-0.07,1.28-0.22c0,0.08,0.02,0.16,0.02,0.24c0,2.67-1.06,5.08-2.76,6.88c6.52-1.69,12.1-5.25,15.61-7.93l2.64-1.75
			c0.6-0.43,1.29-0.74,2.08-0.74c2.01,0,3.63,1.63,3.63,3.63c0,1.11-0.53,2.07-1.31,2.74c0,0-16.12,12.49-29.93,12.49
			c-17.65,0-31.57-13.89-32.15-14.48l-3.02-3.06l3.45-2.56C49.92,94.38,63.74,84.26,81.07,84.26 M73.81,106.48
			c-1.71-1.8-2.77-4.22-2.77-6.89c0-2.85,1.2-5.41,3.11-7.24c-6.84,1.2-12.67,3.9-16.31,5.93
			C61.33,100.99,67.08,104.73,73.81,106.48 M81.07,79.17c-18.67,0-33.17,10.37-34.76,11.56l-3.45,2.56l-4.7,3.49l4.11,4.17
			l3.02,3.06C46.92,105.65,61.67,120,81.07,120c15.38,0,32.34-13,33.05-13.56l0.09-0.07l0.09-0.07c1.97-1.68,3.1-4.09,3.1-6.61
			c0-4.81-3.91-8.72-8.72-8.72c-0.76,0-1.51,0.11-2.25,0.32c0-0.05,0-0.11,0-0.16c0-2.31-0.88-4.45-2.4-6.05V84.1l-3.33-1.24
			C94.07,80.41,87.47,79.17,81.07,79.17L81.07,79.17z"/>
	</g>
</g>
</svg>
