<?xml version="1.0" encoding="utf-8"?>
<!-- Generator: Adobe Illustrator 24.1.0, SVG Export Plug-In . SVG Version: 6.00 Build 0)  -->
<svg version="1.1" id="Capa_1" xmlns="http://www.w3.org/2000/svg" xmlns:xlink="http://www.w3.org/1999/xlink" x="0px" y="0px"
	 viewBox="0 0 120 120" style="enable-background:new 0 0 120 120;" xml:space="preserve">
<style type="text/css">
	.st0{fill:#FFFFFF;}
	.st1{fill:#440099;}
	.st2{opacity:0.4;}
	.st3{fill:#FF6A13;}
</style>
<g>
	<g>
		<path class="st0" d="M71.32,115.29H24.25c-10.94,0-19.9-8.95-19.9-19.9V24.55c0-10.94,8.95-19.9,19.9-19.9h47.07
			c10.94,0,19.9,8.95,19.9,19.9v70.85C91.21,106.34,82.26,115.29,71.32,115.29z"/>
		<path class="st1" d="M79.59,120H15.98c-9.01,0-16.33-7.33-16.33-16.33v-87.4c0-9.01,7.33-16.33,16.33-16.33h63.61
			c9.01,0,16.33,7.33,16.33,16.33v87.4C95.92,112.67,88.59,120,79.59,120z M15.98,9.36c-3.81,0-6.91,3.1-6.91,6.91v87.4
			c0,3.81,3.1,6.91,6.91,6.91h63.61c3.81,0,6.91-3.1,6.91-6.91v-87.4c0-3.81-3.1-6.91-6.91-6.91H15.98z"/>
	</g>
</g>
<g>
	<g class="st2">
		<path class="st1" d="M69.56,55.73H28.03c-3.58,0-6.48-2.9-6.48-6.48v0c0-3.58,2.9-6.48,6.48-6.48h41.53c3.58,0,6.48,2.9,6.48,6.48
			v0C76.04,52.83,73.14,55.73,69.56,55.73z"/>
	</g>
	<g class="st2">
		<path class="st1" d="M69.56,74.08H28.03c-3.58,0-6.48-2.9-6.48-6.48v0c0-3.58,2.9-6.48,6.48-6.48h41.53c3.58,0,6.48,2.9,6.48,6.48
			v0C76.04,71.18,73.14,74.08,69.56,74.08z"/>
	</g>
	<g class="st2">
		<path class="st1" d="M69.56,37.38H28.03c-3.58,0-6.48-2.9-6.48-6.48v0c0-3.58,2.9-6.48,6.48-6.48h41.53c3.58,0,6.48,2.9,6.48,6.48
			v0C76.04,34.47,73.14,37.38,69.56,37.38z"/>
	</g>
</g>
<g>
	<path class="st3" d="M110.49,87.99l-12.65,0.04l-0.04-12.65c-0.01-2.67-2.18-4.83-4.86-4.82c-0.04,0-0.09,0-0.14,0
		c-2.61,0.08-4.69,2.23-4.68,4.85l0.04,12.65l-12.65,0.04c-0.04,0-0.09,0-0.14,0c-2.61,0.08-4.7,2.23-4.69,4.85
		c0.01,2.67,2.18,4.83,4.86,4.82l12.65-0.04l0.04,12.65c0.01,2.67,2.18,4.83,4.86,4.82c0.04,0,0.09,0,0.14,0
		c2.61-0.08,4.69-2.23,4.68-4.85l-0.04-12.65l12.65-0.04c0.04,0,0.09,0,0.14,0c2.61-0.08,4.69-2.23,4.68-4.85
		C115.34,90.14,113.16,87.98,110.49,87.99z"/>
	<path class="st0" d="M92.96,70.56c2.67,0,4.83,2.16,4.84,4.82l0.04,12.65l12.65-0.04c0.01,0,0.01,0,0.02,0
		c2.67,0,4.83,2.16,4.84,4.82c0.01,2.63-2.08,4.77-4.68,4.85c-0.04,0-0.09,0-0.13,0c0,0,0,0-0.01,0l-12.65,0.04l0.04,12.65
		c0.01,2.63-2.08,4.77-4.68,4.85c-0.04,0-0.09,0-0.13,0c0,0-0.01,0-0.01,0c-0.01,0-0.01,0-0.02,0c-2.67,0-4.83-2.16-4.84-4.82
		L88.2,97.75l-12.65,0.04c-0.01,0-0.01,0-0.02,0c-2.67,0-4.83-2.16-4.84-4.82c-0.01-2.63,2.08-4.77,4.69-4.85c0.04,0,0.09,0,0.13,0
		c0,0,0.01,0,0.01,0l12.65-0.04l-0.04-12.65c-0.01-2.63,2.08-4.77,4.68-4.85c0.04,0,0.09,0,0.13,0c0,0,0.01,0,0.01,0
		C92.95,70.56,92.95,70.56,92.96,70.56 M92.96,65.79L92.96,65.79L92.96,65.79l-0.03,0l-0.07,0l-0.21,0
		c-5.24,0.16-9.33,4.4-9.31,9.64l0.03,7.88l-7.88,0.03l-0.07,0l-0.2,0c-5.24,0.16-9.33,4.4-9.31,9.64c0.02,5.28,4.33,9.58,9.62,9.58
		l7.91-0.03l0.03,7.88c0.01,5.28,4.33,9.58,9.61,9.58h0.08l0.23-0.01c5.24-0.16,9.33-4.4,9.31-9.64l-0.03-7.88l7.88-0.03l0.07,0
		l0.2,0c5.23-0.16,9.32-4.4,9.31-9.64c-0.01-5.28-4.33-9.58-9.61-9.58l-7.91,0.03l-0.03-7.88C102.56,70.09,98.24,65.79,92.96,65.79
		L92.96,65.79z"/>
</g>
</svg>
