<?xml version="1.0" encoding="utf-8"?>
<!-- Generator: Adobe Illustrator 24.1.0, SVG Export Plug-In . SVG Version: 6.00 Build 0)  -->
<svg version="1.1" id="Capa_1" xmlns="http://www.w3.org/2000/svg" xmlns:xlink="http://www.w3.org/1999/xlink" x="0px" y="0px"
	 viewBox="0 0 120 120" style="enable-background:new 0 0 120 120;" xml:space="preserve">
<style type="text/css">
	.st0{fill:#FFFFFF;}
	.st1{fill:#440099;}
	.st2{opacity:0.4;}
	.st3{opacity:0.14;}
	.st4{opacity:0.71;}
</style>
<g>
	<g>
		<g>
			<path class="st0" d="M86.33,95.29H34.61C27.67,95.29,22,89.62,22,82.69V17.92c0-6.93,5.67-12.61,12.61-12.61h51.73
				c6.93,0,12.61,5.67,12.61,12.61v64.77C98.94,89.62,93.27,95.29,86.33,95.29z"/>
			<path class="st1" d="M86.33,100.4H34.61c-9.77,0-17.71-7.95-17.71-17.71V17.92c0-9.77,7.95-17.71,17.71-17.71h51.73
				c9.77,0,17.71,7.95,17.71,17.71v64.77C104.05,92.45,96.1,100.4,86.33,100.4z M34.61,10.42c-4.13,0-7.5,3.36-7.5,7.5v64.77
				c0,4.13,3.36,7.5,7.5,7.5h51.73c4.13,0,7.5-3.36,7.5-7.5V17.92c0-4.13-3.36-7.5-7.5-7.5H34.61z"/>
		</g>
		<g class="st2">
			<path class="st1" d="M45.63,46.2h-4.07c-2.82,0-5.11-2.29-5.11-5.11c0-2.82,2.29-5.11,5.11-5.11h4.07c2.82,0,5.11,2.29,5.11,5.11
				C50.74,43.92,48.45,46.2,45.63,46.2z"/>
		</g>
		<g class="st3">
			<path class="st1" d="M61.77,46.2H57.7c-2.82,0-5.11-2.29-5.11-5.11c0-2.82,2.29-5.11,5.11-5.11h4.07c2.82,0,5.11,2.29,5.11,5.11
				C66.88,43.92,64.59,46.2,61.77,46.2z"/>
		</g>
		<g class="st3">
			<path class="st1" d="M77.9,46.2h-4.07c-2.82,0-5.11-2.29-5.11-5.11c0-2.82,2.29-5.11,5.11-5.11h4.07c2.82,0,5.11,2.29,5.11,5.11
				C83.01,43.92,80.73,46.2,77.9,46.2z"/>
		</g>
		<g class="st4">
			<path class="st1" d="M45.63,30.85h-4.07c-2.82,0-5.11-2.29-5.11-5.11s2.29-5.11,5.11-5.11h4.07c2.82,0,5.11,2.29,5.11,5.11
				S48.45,30.85,45.63,30.85z"/>
		</g>
		<g class="st4">
			<path class="st1" d="M61.77,30.85H57.7c-2.82,0-5.11-2.29-5.11-5.11s2.29-5.11,5.11-5.11h4.07c2.82,0,5.11,2.29,5.11,5.11
				S64.59,30.85,61.77,30.85z"/>
		</g>
		<g class="st4">
			<path class="st1" d="M77.9,30.85h-4.07c-2.82,0-5.11-2.29-5.11-5.11s2.29-5.11,5.11-5.11h4.07c2.82,0,5.11,2.29,5.11,5.11
				S80.73,30.85,77.9,30.85z"/>
		</g>
		<g class="st2">
			<path class="st1" d="M45.63,61.82h-4.07c-2.82,0-5.11-2.29-5.11-5.11c0-2.82,2.29-5.11,5.11-5.11h4.07
				c2.82,0,5.11,2.29,5.11,5.11C50.74,59.53,48.45,61.82,45.63,61.82z"/>
		</g>
		<g class="st3">
			<path class="st1" d="M61.77,61.82H57.7c-2.82,0-5.11-2.29-5.11-5.11c0-2.82,2.29-5.11,5.11-5.11h4.07c2.82,0,5.11,2.29,5.11,5.11
				C66.88,59.53,64.59,61.82,61.77,61.82z"/>
		</g>
		<g class="st3">
			<path class="st1" d="M77.9,61.82h-4.07c-2.82,0-5.11-2.29-5.11-5.11c0-2.82,2.29-5.11,5.11-5.11h4.07c2.82,0,5.11,2.29,5.11,5.11
				C83.01,59.53,80.73,61.82,77.9,61.82z"/>
		</g>
		<g class="st2">
			<path class="st1" d="M45.63,77.43h-4.07c-2.82,0-5.11-2.29-5.11-5.11s2.29-5.11,5.11-5.11h4.07c2.82,0,5.11,2.29,5.11,5.11
				S48.45,77.43,45.63,77.43z"/>
		</g>
		<g class="st3">
			<path class="st1" d="M61.77,77.43H57.7c-2.82,0-5.11-2.29-5.11-5.11s2.29-5.11,5.11-5.11h4.07c2.82,0,5.11,2.29,5.11,5.11
				S64.59,77.43,61.77,77.43z"/>
		</g>
		<g class="st3">
			<path class="st1" d="M77.9,77.43h-4.07c-2.82,0-5.11-2.29-5.11-5.11s2.29-5.11,5.11-5.11h4.07c2.82,0,5.11,2.29,5.11,5.11
				S80.73,77.43,77.9,77.43z"/>
		</g>
	</g>
	<g>
		<g>
			<path class="st0" d="M69.46,114.89H17.73c-6.93,0-12.61-5.67-12.61-12.61V37.52c0-6.93,5.67-12.61,12.61-12.61h51.73
				c6.93,0,12.61,5.67,12.61,12.61v64.77C82.07,109.22,76.39,114.89,69.46,114.89z"/>
			<path class="st1" d="M69.46,120H17.73c-9.77,0-17.71-7.95-17.71-17.71V37.52c0-9.77,7.95-17.71,17.71-17.71h51.73
				c9.77,0,17.71,7.95,17.71,17.71v64.77C87.17,112.05,79.23,120,69.46,120z M17.73,30.02c-4.13,0-7.5,3.36-7.5,7.5v64.77
				c0,4.13,3.36,7.5,7.5,7.5h51.73c4.13,0,7.5-3.36,7.5-7.5V37.52c0-4.13-3.36-7.5-7.5-7.5H17.73z"/>
		</g>
		<g class="st2">
			<path class="st1" d="M28.76,65.8h-4.07c-2.82,0-5.11-2.29-5.11-5.11c0-2.82,2.29-5.11,5.11-5.11h4.07c2.82,0,5.11,2.29,5.11,5.11
				C33.87,63.52,31.58,65.8,28.76,65.8z"/>
		</g>
		<g class="st3">
			<path class="st1" d="M44.9,65.8h-4.07c-2.82,0-5.11-2.29-5.11-5.11c0-2.82,2.29-5.11,5.11-5.11h4.07c2.82,0,5.11,2.29,5.11,5.11
				C50,63.52,47.72,65.8,44.9,65.8z"/>
		</g>
		<g class="st3">
			<path class="st1" d="M61.03,65.8h-4.07c-2.82,0-5.11-2.29-5.11-5.11c0-2.82,2.29-5.11,5.11-5.11h4.07c2.82,0,5.11,2.29,5.11,5.11
				C66.14,63.52,63.85,65.8,61.03,65.8z"/>
		</g>
		<g class="st4">
			<path class="st1" d="M28.76,50.45h-4.07c-2.82,0-5.11-2.29-5.11-5.11s2.29-5.11,5.11-5.11h4.07c2.82,0,5.11,2.29,5.11,5.11
				S31.58,50.45,28.76,50.45z"/>
		</g>
		<g class="st4">
			<path class="st1" d="M44.9,50.45h-4.07c-2.82,0-5.11-2.29-5.11-5.11s2.29-5.11,5.11-5.11h4.07c2.82,0,5.11,2.29,5.11,5.11
				S47.72,50.45,44.9,50.45z"/>
		</g>
		<g class="st4">
			<path class="st1" d="M61.03,50.45h-4.07c-2.82,0-5.11-2.29-5.11-5.11s2.29-5.11,5.11-5.11h4.07c2.82,0,5.11,2.29,5.11,5.11
				S63.85,50.45,61.03,50.45z"/>
		</g>
		<g class="st2">
			<path class="st1" d="M28.76,81.42h-4.07c-2.82,0-5.11-2.29-5.11-5.11s2.29-5.11,5.11-5.11h4.07c2.82,0,5.11,2.29,5.11,5.11
				S31.58,81.42,28.76,81.42z"/>
		</g>
		<g class="st3">
			<path class="st1" d="M44.9,81.42h-4.07c-2.82,0-5.11-2.29-5.11-5.11S38,71.2,40.82,71.2h4.07c2.82,0,5.11,2.29,5.11,5.11
				S47.72,81.42,44.9,81.42z"/>
		</g>
		<g class="st3">
			<path class="st1" d="M61.03,81.42h-4.07c-2.82,0-5.11-2.29-5.11-5.11s2.29-5.11,5.11-5.11h4.07c2.82,0,5.11,2.29,5.11,5.11
				S63.85,81.42,61.03,81.42z"/>
		</g>
		<g class="st2">
			<path class="st1" d="M28.76,97.03h-4.07c-2.82,0-5.11-2.29-5.11-5.11s2.29-5.11,5.11-5.11h4.07c2.82,0,5.11,2.29,5.11,5.11
				S31.58,97.03,28.76,97.03z"/>
		</g>
		<g class="st3">
			<path class="st1" d="M44.9,97.03h-4.07c-2.82,0-5.11-2.29-5.11-5.11s2.29-5.11,5.11-5.11h4.07c2.82,0,5.11,2.29,5.11,5.11
				S47.72,97.03,44.9,97.03z"/>
		</g>
		<g class="st3">
			<path class="st1" d="M61.03,97.03h-4.07c-2.82,0-5.11-2.29-5.11-5.11s2.29-5.11,5.11-5.11h4.07c2.82,0,5.11,2.29,5.11,5.11
				S63.85,97.03,61.03,97.03z"/>
		</g>
	</g>
</g>
</svg>
