<svg xmlns="http://www.w3.org/2000/svg" viewBox="0 0 35.18 36.79"><defs><style>.cls-1,.cls-6{fill:#fff;}.cls-1{stroke:#409;}.cls-1,.cls-5{stroke-miterlimit:10;stroke-width:2px;}.cls-2,.cls-5{fill:#409;}.cls-3{opacity:0.4;}.cls-4{fill:#ff6a13;}.cls-5{stroke:#fff;}</style></defs><g id="Layer_2" data-name="Layer 2"><g id="Layer_1-2" data-name="Layer 1"><rect class="cls-1" x="4.27" y="5.88" width="33.52" height="26.3" rx="4.47" transform="translate(2 40.06) rotate(-90)"/><path class="cls-2" d="M13.36,22.61H28.69a1.35,1.35,0,0,1,0,2.69H13.36a1.35,1.35,0,0,1,0-2.69Z"/><path class="cls-2" d="M13.36,28H28.69a1.35,1.35,0,0,1,0,2.69H13.36a1.35,1.35,0,0,1,0-2.69Z"/><g class="cls-3"><path class="cls-2" d="M17.84,17.45H28.69a1.34,1.34,0,0,1,0,2.68H17.84a1.34,1.34,0,0,1,0-2.68Z"/></g><path class="cls-4" d="M22.25,12.29h6.56a1.35,1.35,0,0,1,0,2.68H22.25a1.35,1.35,0,0,1,0-2.68Z"/><path class="cls-4" d="M22.25,7.41h6.56A1.29,1.29,0,0,1,30,8.75a1.29,1.29,0,0,1-1.22,1.34H22.25A1.28,1.28,0,0,1,21,8.75,1.28,1.28,0,0,1,22.25,7.41Z"/><path class="cls-5" d="M19.35,10.18a9.18,9.18,0,1,0-11.5,8.87,21,21,0,0,1-2.34,3.82,8.33,8.33,0,0,0,6.89-3.8A9.16,9.16,0,0,0,19.35,10.18Z"/><path class="cls-6" d="M9.69,11.36a.84.84,0,0,1-.23-.48L8.84,7.12a.84.84,0,0,1,0-.19,1.07,1.07,0,0,1,.37-.85,1.45,1.45,0,0,1,.93-.31,1.36,1.36,0,0,1,.92.32,1,1,0,0,1,.37.85,1,1,0,0,1,0,.2l-.63,3.74a.77.77,0,0,1-.22.48.59.59,0,0,1-.42.17A.6.6,0,0,1,9.69,11.36Zm-.41,2.71a1.21,1.21,0,0,1,0-1.66,1.11,1.11,0,0,1,.84-.34,1.08,1.08,0,0,1,.82.34,1.21,1.21,0,0,1,0,1.66,1.08,1.08,0,0,1-.82.34A1.11,1.11,0,0,1,9.28,14.07Z"/></g></g></svg>