<svg xmlns="http://www.w3.org/2000/svg" viewBox="0 0 34.4 38.21"><defs><style>.cls-1,.cls-5{fill:#fff;}.cls-1{stroke:#409;stroke-miterlimit:10;stroke-width:2px;}.cls-2{fill:#409;}.cls-3{opacity:0.4;}.cls-4{fill:#ff6a13;}</style></defs><g id="Layer_2" data-name="Layer 2"><g id="Layer_1-2" data-name="Layer 1"><rect class="cls-1" x="3.49" y="4.61" width="33.52" height="26.3" rx="4.47" transform="translate(38.01 -2.49) rotate(90)"/><path class="cls-2" d="M12.59,9.28H27.91a1.35,1.35,0,1,0,0-2.69H12.59a1.35,1.35,0,0,0,0,2.69Z"/><g class="cls-3"><path class="cls-2" d="M17.07,14.44H27.91a1.35,1.35,0,1,0,0-2.69H17.07a1.35,1.35,0,1,0,0,2.69Z"/></g><path class="cls-4" d="M17.56,19.6h9.86c1,0,1.84-.6,1.84-1.34s-.82-1.34-1.84-1.34H17.56c-1,0-1.84.6-1.84,1.34S16.55,19.6,17.56,19.6Z"/><path class="cls-4" d="M21.47,24.48H28a1.35,1.35,0,0,0,0-2.68H21.47a1.35,1.35,0,0,0,0,2.68Z"/><path class="cls-4" d="M2.78,37.21a1.78,1.78,0,0,1-1.54-2.67L10.09,19.2a1.79,1.79,0,0,1,3.09,0L22,34.54a1.72,1.72,0,0,1,0,1.78,1.74,1.74,0,0,1-1.54.89Z"/><path class="cls-5" d="M11.64,19.31a.77.77,0,0,1,.67.39L21.17,35a.78.78,0,0,1-.68,1.17H2.78A.78.78,0,0,1,2.1,35L11,19.7a.77.77,0,0,1,.68-.39m0-2A2.78,2.78,0,0,0,9.23,18.7L.37,34a2.81,2.81,0,0,0,0,2.78,2.79,2.79,0,0,0,2.41,1.39H20.49A2.78,2.78,0,0,0,22.9,34L14,18.7a2.76,2.76,0,0,0-2.4-1.39Z"/><path class="cls-5" d="M11.21,30.45A.83.83,0,0,1,11,30l-.63-3.75a1,1,0,0,1,0-.19,1,1,0,0,1,.37-.85,1.35,1.35,0,0,1,.92-.31,1.36,1.36,0,0,1,.93.31,1.09,1.09,0,0,1,.36.86,1,1,0,0,1,0,.19L12.28,30a.72.72,0,0,1-.21.48.63.63,0,0,1-.86,0Zm-.41,2.72a1.15,1.15,0,0,1-.33-.83,1.17,1.17,0,0,1,.33-.84,1.22,1.22,0,0,1,1.67,0,1.17,1.17,0,0,1,.33.84,1.17,1.17,0,0,1-2,.83Z"/></g></g></svg>