<svg xmlns="http://www.w3.org/2000/svg" viewBox="0 0 35.52 35.3"><defs><style>.cls-1{fill:#409;}.cls-2{fill:#fff;stroke:#409;stroke-miterlimit:10;stroke-width:2px;}.cls-3{fill:#ff6a13;}.cls-4{opacity:0.4;}</style></defs><g id="Layer_2" data-name="Layer 2"><g id="Layer_1-2" data-name="Layer 1"><path class="cls-1" d="M22.57,35.3H13A1.16,1.16,0,0,1,13,33h9.62a1.16,1.16,0,0,1,0,2.31Z"/><path class="cls-1" d="M17.76,34.66h0a1.16,1.16,0,0,1-1.16-1.15v-2a1.15,1.15,0,0,1,1.15-1.15h0a1.16,1.16,0,0,1,1.15,1.16v2A1.15,1.15,0,0,1,17.76,34.66Z"/><rect class="cls-2" x="1" y="1" width="33.52" height="26.3" rx="4.47"/><circle class="cls-3" cx="25.49" cy="18.4" r="4.44"/><path class="cls-1" d="M25.49,18.39l4.42-.18a4.42,4.42,0,1,0-4.41,4.61Z"/><path class="cls-3" d="M28.25,5.11a1,1,0,0,0-1-.26l-2.61.7a1,1,0,0,0-.45,1.67l.26.26L22.64,9.33,20.17,6.86a1,1,0,0,0-1.42,0L15.3,10.31a1,1,0,0,0,0,1.41,1,1,0,0,0,1.42,0L19.46,9l2.47,2.47a1,1,0,0,0,1.41,0L25.9,8.89l.23.24a1,1,0,0,0,.71.29,1.15,1.15,0,0,0,.26,0,1,1,0,0,0,.71-.71l.69-2.61A1,1,0,0,0,28.25,5.11Z"/><g class="cls-4"><path class="cls-1" d="M8,8.6V22.29a1.2,1.2,0,1,1-2.4,0V8.6A1.2,1.2,0,0,1,8,8.6Z"/></g><g class="cls-4"><path class="cls-1" d="M12.6,12.6v9.69a1.2,1.2,0,1,1-2.4,0V12.6a1.2,1.2,0,0,1,2.4,0Z"/></g><path class="cls-3" d="M17.21,15.83v6.46a1.2,1.2,0,1,1-2.4,0V15.83a1.2,1.2,0,1,1,2.4,0Z"/></g></g></svg>