<svg xmlns="http://www.w3.org/2000/svg" viewBox="0 0 27.04 34.55"><defs><style>.cls-1{fill:#fff;stroke-miterlimit:10;}.cls-1,.cls-3{stroke:#409;stroke-width:2px;}.cls-2,.cls-4,.cls-5{fill:#409;}.cls-2{opacity:0.2;}.cls-3{fill:none;stroke-linecap:round;stroke-linejoin:round;}.cls-5{opacity:0.4;}.cls-6{fill:#ff6a13;}</style></defs><g id="Layer_2" data-name="Layer 2"><g id="Layer_1-2" data-name="Layer 1"><rect class="cls-1" x="1" y="1" width="25.04" height="32.55" rx="4.47"/><rect class="cls-2" x="4.63" y="5.34" width="6.96" height="6.96" rx="2"/><polyline class="cls-3" points="6.96 8.19 8.9 10.02 12.24 6.47"/><rect class="cls-4" x="4.63" y="14.58" width="17.78" height="2.53" rx="1.17"/><rect class="cls-4" x="14.4" y="10.12" width="8.02" height="2.53" rx="1.17"/><rect class="cls-5" x="15.18" y="5.66" width="7.23" height="2.53" rx="1.17"/><path class="cls-6" d="M22.51,23.71a.91.91,0,0,0-1.29,0l-.1.11V20.13a.92.92,0,0,0-.91-.92H5.54a.93.93,0,0,0,0,1.85H19.3v2.8l-.1-.1a.89.89,0,0,0-.65-.27.87.87,0,0,0-.64.27.93.93,0,0,0,0,1.31l1.63,1.65a.89.89,0,0,0,.65.27.87.87,0,0,0,.64-.27L22.51,25a.93.93,0,0,0,.27-.65A1,1,0,0,0,22.51,23.71Z"/><path class="cls-5" d="M21.87,28.35H8.11v-2.8l.1.1a.91.91,0,0,0,.65.27.87.87,0,0,0,.64-.27.92.92,0,0,0,0-1.3L7.87,22.69a.91.91,0,0,0-1.29,0L4.9,24.39a.93.93,0,0,0,0,1.31.91.91,0,0,0,1.29,0l.1-.11v3.69a.92.92,0,0,0,.91.92H21.87a.93.93,0,0,0,0-1.85Z"/></g></g></svg>