<svg xmlns="http://www.w3.org/2000/svg" viewBox="0 0 44.41 39.55"><defs><style>.cls-1{fill:#fff;stroke-miterlimit:10;}.cls-1,.cls-3{stroke:#409;stroke-width:2px;}.cls-2{fill:#a17fcc;}.cls-3{fill:none;stroke-linecap:round;stroke-linejoin:round;}.cls-4{fill:#ff6a13;}</style></defs><g id="Layer_2" data-name="Layer 2"><g id="Layer_1-2" data-name="Layer 1"><rect class="cls-1" x="1" y="22.34" width="15.83" height="15.83" rx="3.77"/><path class="cls-2" d="M3.24,27.31v7.75a.83.83,0,0,0,.83.83H14a.83.83,0,0,0,.83-.83V27.31a.83.83,0,0,0-.83-.83H4.07A.83.83,0,0,0,3.24,27.31Zm3,3.21h-1a.83.83,0,0,1-.83-.83v-1a.83.83,0,0,1,.83-.83h1a.83.83,0,0,1,.83.83v1A.83.83,0,0,1,6.24,30.52Zm4,0h-1a.83.83,0,0,1-.83-.83v-1a.83.83,0,0,1,.83-.83h1a.83.83,0,0,1,.83.83v1A.83.83,0,0,1,10.29,30.56Z"/><line class="cls-3" x1="5.89" y1="20" x2="5.89" y2="24.53"/><line class="cls-3" x1="11.67" y1="20" x2="11.67" y2="24.53"/><path class="cls-3" d="M40.75,25.38A17.22,17.22,0,0,1,21.09,36.79"/><path class="cls-3" d="M30.08,3.62A17.23,17.23,0,0,1,41.64,20.48"/><path class="cls-3" d="M7.53,16.56A17.22,17.22,0,0,1,24.9,2.67"/><polyline class="cls-3" points="23.5 1 25.03 2.85 22.95 4.57"/><polyline class="cls-3" points="43.41 18.8 41.72 20.5 39.81 18.59"/><polyline class="cls-3" points="22.62 38.55 20.93 36.85 22.83 34.95"/><polygon class="cls-4" points="23.31 11.15 20.46 21.53 23.97 21.53 22.21 28.85 29.61 18.8 26.79 18.8 29.61 11.15 23.31 11.15"/></g></g></svg>