<svg xmlns="http://www.w3.org/2000/svg" viewBox="0 0 36 36"><defs><style>.cls-1{fill:none;}.cls-2{fill:#409;}</style></defs><g id="Layer_2" data-name="Layer 2"><g id="Layer_1-2" data-name="Layer 1"><rect class="cls-1" width="36" height="36"/><rect class="cls-2" x="14.94" y="5.8" width="6.97" height="6.97" rx="0.05"/><path class="cls-2" d="M9.67,5.8h3.26a.21.21,0,0,1,.21.21v6.56a.21.21,0,0,1-.21.21H6.37a.21.21,0,0,1-.21-.21V9.3A3.5,3.5,0,0,1,9.67,5.8Z"/><path class="cls-2" d="M23.77,5.8h3.42a3.5,3.5,0,0,1,3.5,3.5v3.42a.05.05,0,0,1-.05.05H23.77a.05.05,0,0,1-.05-.05V5.85A.05.05,0,0,1,23.77,5.8Z"/><rect class="cls-2" x="14.94" y="14.52" width="6.97" height="6.97" rx="0.05"/><rect class="cls-2" x="6.17" y="14.52" width="6.97" height="6.97" rx="0.05"/><rect class="cls-2" x="23.72" y="14.52" width="6.97" height="6.97" rx="0.05"/><rect class="cls-2" x="14.94" y="23.29" width="6.97" height="6.97" rx="0.05"/><path class="cls-2" d="M6.22,23.29h6.86a.05.05,0,0,1,.05.05v6.86a.05.05,0,0,1-.05.05H9.67a3.5,3.5,0,0,1-3.5-3.5V23.35a.05.05,0,0,1,.05-.05Z"/><path class="cls-2" d="M23.77,23.29h6.86a.05.05,0,0,1,.05.05v3.42a3.5,3.5,0,0,1-3.5,3.5H23.77a.05.05,0,0,1-.05-.05V23.35a.05.05,0,0,1,.05-.05Z"/></g></g></svg>