<svg xmlns="http://www.w3.org/2000/svg" viewBox="0 0 32.98 40.02"><defs><style>.cls-1,.cls-5{fill:#fff;}.cls-1{stroke:#409;stroke-miterlimit:10;stroke-width:2px;}.cls-2,.cls-3{fill:#409;}.cls-2{opacity:0.4;}.cls-4{fill:#ff6a13;}</style></defs><g id="Layer_2" data-name="Layer 2"><g id="Layer_1-2" data-name="Layer 1"><rect class="cls-1" x="1" y="1" width="25.84" height="33.9" rx="4.47"/><rect class="cls-2" x="4.77" y="18.64" width="12.92" height="4.05" rx="1.57"/><rect class="cls-3" x="4.77" y="26.51" width="14.92" height="4.05" rx="1.57"/><rect class="cls-2" x="4.77" y="8.54" width="12.92" height="4.05" rx="1.57"/><path class="cls-4" d="M26.52,38.53a1.64,1.64,0,0,1-1.34-.69,5.69,5.69,0,0,1-.83.06,5.93,5.93,0,0,1-.84-.06,1.66,1.66,0,0,1-1.34.69,1.62,1.62,0,0,1-.83-.23l-1.15-.66a1.65,1.65,0,0,1-.68-2.11,6.06,6.06,0,0,1-.83-1.44,1.65,1.65,0,0,1-1.49-1.64V31.11a1.66,1.66,0,0,1,1.49-1.64A6.06,6.06,0,0,1,19.51,28a1.63,1.63,0,0,1-.09-1.11,1.62,1.62,0,0,1,.78-1l1.15-.66a1.58,1.58,0,0,1,.82-.22,1.66,1.66,0,0,1,1.35.69,5.49,5.49,0,0,1,.83-.06,5.9,5.9,0,0,1,.83.06A1.64,1.64,0,0,1,26.52,25a1.69,1.69,0,0,1,.84.23l1.14.66a1.59,1.59,0,0,1,.77,1A1.63,1.63,0,0,1,29.18,28,6.27,6.27,0,0,1,30,29.47a1.65,1.65,0,0,1,1.49,1.64v1.34A1.66,1.66,0,0,1,30,34.09a6.27,6.27,0,0,1-.83,1.44,1.65,1.65,0,0,1-.68,2.11l-1.16.67A1.65,1.65,0,0,1,26.52,38.53Z"/><path class="cls-5" d="M26.52,26.51l.08,0,1.16.67a.18.18,0,0,1,.08.1.16.16,0,0,1,0,.13,1.25,1.25,0,0,0,.12,1.42,4.66,4.66,0,0,1,.73,1.28,1.28,1.28,0,0,0,1.18.82.17.17,0,0,1,.17.16v1.34a.17.17,0,0,1-.17.16,1.28,1.28,0,0,0-1.18.82,4.66,4.66,0,0,1-.73,1.28,1.25,1.25,0,0,0-.12,1.42.16.16,0,0,1,0,.13.18.18,0,0,1-.08.1L26.6,37l-.08,0a.15.15,0,0,1-.14-.09,1.27,1.27,0,0,0-1.1-.62h-.2a4.53,4.53,0,0,1-1.47,0h-.2a1.26,1.26,0,0,0-1.1.63.16.16,0,0,1-.14.08l-.08,0-1.16-.67a.18.18,0,0,1-.08-.1.22.22,0,0,1,0-.13,1.25,1.25,0,0,0-.12-1.42A4.66,4.66,0,0,1,20,33.43a1.28,1.28,0,0,0-1.18-.82.17.17,0,0,1-.17-.16V31.11a.17.17,0,0,1,.17-.16A1.28,1.28,0,0,0,20,30.13a4.66,4.66,0,0,1,.73-1.28,1.25,1.25,0,0,0,.12-1.42.22.22,0,0,1,0-.13.18.18,0,0,1,.08-.1l1.16-.67.08,0a.16.16,0,0,1,.14.08h0a1.27,1.27,0,0,0,1.1.62h.2a4.53,4.53,0,0,1,1.47,0h.2a1.27,1.27,0,0,0,1.1-.62h0a.16.16,0,0,1,.14-.08m0-3a3.13,3.13,0,0,0-1.9.64h-.55A3.18,3.18,0,0,0,20.59,24l-1.14.66A3.11,3.11,0,0,0,18,26.53a3,3,0,0,0-.08,1.22c-.1.15-.19.31-.28.47a3.14,3.14,0,0,0-1.92,2.89v1.34a3.14,3.14,0,0,0,1.92,2.89c.09.16.18.32.28.48A3.15,3.15,0,0,0,18,37a3.11,3.11,0,0,0,1.43,1.87l1.19.69a3.08,3.08,0,0,0,1.56.41,3.21,3.21,0,0,0,1.9-.63h.56a3.17,3.17,0,0,0,1.89.64,3.07,3.07,0,0,0,1.59-.44l1.13-.65a3.19,3.19,0,0,0,1.55-3.12l.27-.47A3.14,3.14,0,0,0,33,32.45V31.11a3.14,3.14,0,0,0-1.92-2.89l-.27-.47a3.17,3.17,0,0,0-.09-1.22,3.06,3.06,0,0,0-1.47-1.9L28.08,24a3.06,3.06,0,0,0-1.56-.42Z"/><path class="cls-5" d="M26.52,37.79a.93.93,0,0,1-.79-.45.51.51,0,0,0-.45-.26H25.2a5,5,0,0,1-.85.08,6.23,6.23,0,0,1-.86-.07h-.08a.51.51,0,0,0-.45.26.93.93,0,0,1-1.25.33L20.56,37a.92.92,0,0,1-.42-.55.88.88,0,0,1,.09-.69.53.53,0,0,0-.05-.58,5.41,5.41,0,0,1-.86-1.49.51.51,0,0,0-.48-.33.91.91,0,0,1-.91-.91V31.11a.91.91,0,0,1,.91-.91.51.51,0,0,0,.48-.33,5.21,5.21,0,0,1,.86-1.48.55.55,0,0,0,.05-.59.88.88,0,0,1-.09-.69.89.89,0,0,1,.42-.55l1.16-.67a.91.91,0,0,1,1.21.29l0,.07a.53.53,0,0,0,.44.23h.09a6,6,0,0,1,.85-.07,5,5,0,0,1,.85.08h.08a.51.51,0,0,0,.45-.26.93.93,0,0,1,.79-.45.84.84,0,0,1,.46.13l1.15.66a.89.89,0,0,1,.42.55.88.88,0,0,1-.09.69.55.55,0,0,0,.05.59,5.21,5.21,0,0,1,.86,1.48.51.51,0,0,0,.48.33.91.91,0,0,1,.91.91v1.34a.91.91,0,0,1-.91.91.51.51,0,0,0-.48.33,5.41,5.41,0,0,1-.86,1.49.53.53,0,0,0-.05.58.88.88,0,0,1,.09.69.89.89,0,0,1-.42.55L27,37.67A.87.87,0,0,1,26.52,37.79Z"/><path class="cls-4" d="M26.52,26.51l.08,0,1.16.67a.18.18,0,0,1,.08.1.16.16,0,0,1,0,.13,1.25,1.25,0,0,0,.12,1.42,4.66,4.66,0,0,1,.73,1.28,1.28,1.28,0,0,0,1.18.82.17.17,0,0,1,.17.16v1.34a.17.17,0,0,1-.17.16,1.28,1.28,0,0,0-1.18.82,4.66,4.66,0,0,1-.73,1.28,1.25,1.25,0,0,0-.12,1.42.16.16,0,0,1,0,.13.18.18,0,0,1-.08.1L26.6,37l-.08,0a.15.15,0,0,1-.14-.09,1.27,1.27,0,0,0-1.1-.62h-.2a4.53,4.53,0,0,1-1.47,0h-.2a1.26,1.26,0,0,0-1.1.63.16.16,0,0,1-.14.08l-.08,0-1.16-.67a.18.18,0,0,1-.08-.1.22.22,0,0,1,0-.13,1.25,1.25,0,0,0-.12-1.42A4.66,4.66,0,0,1,20,33.43a1.28,1.28,0,0,0-1.18-.82.17.17,0,0,1-.17-.16V31.11a.17.17,0,0,1,.17-.16A1.28,1.28,0,0,0,20,30.13a4.66,4.66,0,0,1,.73-1.28,1.25,1.25,0,0,0,.12-1.42.22.22,0,0,1,0-.13.18.18,0,0,1,.08-.1l1.16-.67.08,0a.16.16,0,0,1,.14.08h0a1.27,1.27,0,0,0,1.1.62h.2a4.53,4.53,0,0,1,1.47,0h.2a1.27,1.27,0,0,0,1.1-.62h0a.16.16,0,0,1,.14-.08m0-1.48a1.64,1.64,0,0,0-1.34.69,5.84,5.84,0,0,0-1.67,0A1.64,1.64,0,0,0,22.17,25a1.72,1.72,0,0,0-.83.22l-1.15.67A1.65,1.65,0,0,0,19.51,28a6.06,6.06,0,0,0-.83,1.44,1.66,1.66,0,0,0-1.49,1.64v1.34a1.65,1.65,0,0,0,1.49,1.64,6.06,6.06,0,0,0,.83,1.44,1.65,1.65,0,0,0,.67,2.11l1.17.67a1.65,1.65,0,0,0,.82.22,1.63,1.63,0,0,0,1.34-.69,5.84,5.84,0,0,0,1.67,0,1.64,1.64,0,0,0,1.34.69,1.62,1.62,0,0,0,.83-.23l1.15-.66a1.61,1.61,0,0,0,.77-1,1.63,1.63,0,0,0-.09-1.11A6.06,6.06,0,0,0,30,34.09a1.66,1.66,0,0,0,1.49-1.64V31.11A1.65,1.65,0,0,0,30,29.47,6.06,6.06,0,0,0,29.18,28a1.67,1.67,0,0,0-.68-2.12l-1.16-.66a1.65,1.65,0,0,0-.82-.22Z"/><path class="cls-5" d="M30,32.45a.17.17,0,0,1-.17.16,1.28,1.28,0,0,0-1.18.82,4.66,4.66,0,0,1-.73,1.28,1.25,1.25,0,0,0-.12,1.42.16.16,0,0,1,0,.13.18.18,0,0,1-.08.1L26.6,37a.16.16,0,0,1-.22-.07,1.29,1.29,0,0,0-1.3-.61,4.53,4.53,0,0,1-1.47,0,1.27,1.27,0,0,0-1.3.62.17.17,0,0,1-.22.06l-1.16-.67a.18.18,0,0,1-.08-.1.22.22,0,0,1,0-.13,1.25,1.25,0,0,0-.12-1.42A4.66,4.66,0,0,1,20,33.43a1.28,1.28,0,0,0-1.18-.82.17.17,0,0,1-.17-.16V31.11a.17.17,0,0,1,.17-.16A1.28,1.28,0,0,0,20,30.13a4.66,4.66,0,0,1,.73-1.28,1.25,1.25,0,0,0,.12-1.42.22.22,0,0,1,0-.13.18.18,0,0,1,.08-.1l1.16-.67.08,0a.16.16,0,0,1,.14.08h0a1.28,1.28,0,0,0,1.3.61,4.53,4.53,0,0,1,1.47,0,1.29,1.29,0,0,0,1.3-.61h0a.16.16,0,0,1,.22-.06l1.16.67a.18.18,0,0,1,.08.1.16.16,0,0,1,0,.13,1.25,1.25,0,0,0,.12,1.42,4.66,4.66,0,0,1,.73,1.28,1.28,1.28,0,0,0,1.18.82.17.17,0,0,1,.17.16Z"/><path class="cls-4" d="M24.34,29.29a2.49,2.49,0,1,0,2.5,2.49A2.49,2.49,0,0,0,24.34,29.29Zm0,3.89a1.4,1.4,0,1,1,1.4-1.4A1.4,1.4,0,0,1,24.34,33.18Z"/><path class="cls-4" d="M24.29,14.4a4.08,4.08,0,0,0-4.07-4.07.93.93,0,0,0,0,1.86,2.21,2.21,0,0,1,.87,4.24l.2-.4a.92.92,0,0,0-.41-1.24.93.93,0,0,0-1.25.41L18.5,17.49a.92.92,0,0,0-.05.71.94.94,0,0,0,.47.53L21.39,20a.86.86,0,0,0,.41.1.93.93,0,0,0,.41-1.76l-.35-.18A4.07,4.07,0,0,0,24.29,14.4Z"/><path class="cls-3" d="M7.64,11.1a1.12,1.12,0,0,1-.81-.34L5.06,9A1.15,1.15,0,1,1,6.68,7.38l1,1,3.27-3.27a1.13,1.13,0,0,1,1.61,0,1.14,1.14,0,0,1,0,1.62L8.45,10.76A1.14,1.14,0,0,1,7.64,11.1Z"/><path class="cls-3" d="M7.64,20.21a1.15,1.15,0,0,1-.81-.33L5.06,18.11a1.14,1.14,0,0,1,0-1.62,1.16,1.16,0,0,1,1.62,0l1,1,3.27-3.26a1.14,1.14,0,0,1,1.61,1.61L8.45,19.88A1.17,1.17,0,0,1,7.64,20.21Z"/></g></g></svg>