<svg xmlns="http://www.w3.org/2000/svg" viewBox="0 0 44.75 33.87"><defs><style>.cls-1,.cls-4,.cls-5{fill:none;stroke-width:2px;}.cls-1,.cls-4{stroke:#409;}.cls-1,.cls-5{stroke-miterlimit:10;}.cls-2{fill:#409;}.cls-3{fill:#ff6a13;}.cls-4{stroke-linecap:round;stroke-linejoin:round;}.cls-5{stroke:#fc6c0f;}</style></defs><g id="Layer_2" data-name="Layer 2"><g id="Layer_1-2" data-name="Layer 1"><rect class="cls-1" x="6.44" y="-4.44" width="31.87" height="42.75" rx="4.47" transform="translate(39.31 -5.44) rotate(90)"/><path class="cls-2" d="M6.1,28.49h7.12a1.35,1.35,0,0,0,.1-2.69H6.21a1.34,1.34,0,0,0-1.32,1.05A1.32,1.32,0,0,0,6.1,28.49Z"/><path class="cls-3" d="M18.77,28.49h7.11A1.35,1.35,0,0,0,26,25.8H18.87a1.35,1.35,0,0,0-1.32,1.05A1.33,1.33,0,0,0,18.77,28.49Z"/><path class="cls-2" d="M31.43,28.49h7.12a1.35,1.35,0,0,0,.1-2.69H31.53a1.35,1.35,0,0,0-1.32,1.05A1.33,1.33,0,0,0,31.43,28.49Z"/><polygon class="cls-3" points="33.78 6.29 31.48 14.65 34.31 14.65 32.9 20.54 38.85 12.46 36.58 12.46 38.85 6.29 33.78 6.29"/><polyline class="cls-4" points="5.44 17.73 11.24 11.93 13.85 14.54 19.75 8.64 24.06 12.95 27.23 9.78"/><rect class="cls-5" x="5.2" y="5.38" width="22.22" height="16.5" rx="2.34"/></g></g></svg>