<svg xmlns="http://www.w3.org/2000/svg" viewBox="0 0 34.72 34.72"><defs><style>.cls-1,.cls-5{fill:#fff;stroke:#409;}.cls-1{stroke-miterlimit:10;stroke-width:2px;}.cls-2{fill:#ff6a13;}.cls-3,.cls-4{fill:#409;}.cls-3{opacity:0.2;}.cls-5{stroke-linecap:round;stroke-linejoin:round;}</style></defs><g id="Layer_2" data-name="Layer 2"><g id="Layer_1-2" data-name="Layer 1"><circle class="cls-1" cx="17.36" cy="17.36" r="16.36"/><polygon class="cls-2" points="16.3 20.85 14.55 26.24 16.71 26.24 15.63 30.04 20.18 24.82 18.44 24.82 20.18 20.85 16.3 20.85"/><path class="cls-3" d="M31.46,17.82v-.08a14.1,14.1,0,0,0-28.2,0s0,.05,0,.08Z"/><path class="cls-4" d="M19.58,17.82H15.14a2.22,2.22,0,1,1,4.44,0Z"/><line class="cls-5" x1="21.13" y1="7.41" x2="17.36" y2="17.37"/><line class="cls-5" x1="4.75" y1="17.12" x2="6.38" y2="17.05"/><line class="cls-5" x1="5.06" y1="14" x2="6.65" y2="14.34"/><line class="cls-5" x1="6.26" y1="11.07" x2="7.69" y2="11.79"/><line class="cls-5" x1="8.26" y1="8.54" x2="9.43" y2="9.58"/><line class="cls-5" x1="10.92" y1="6.59" x2="11.74" y2="7.89"/><line class="cls-5" x1="14.05" y1="5.37" x2="14.47" y2="6.82"/><line class="cls-5" x1="17.41" y1="4.96" x2="17.4" y2="6.46"/><line class="cls-5" x1="20.77" y1="5.39" x2="20.32" y2="6.83"/><line class="cls-5" x1="23.89" y1="6.63" x2="23.04" y2="7.91"/><line class="cls-5" x1="26.52" y1="8.6" x2="25.33" y2="9.62"/><line class="cls-5" x1="28.5" y1="11.14" x2="27.05" y2="11.83"/><line class="cls-5" x1="29.66" y1="14.07" x2="28.07" y2="14.39"/><line class="cls-5" x1="29.93" y1="17.19" x2="28.31" y2="17.1"/></g></g></svg>