<svg xmlns="http://www.w3.org/2000/svg" viewBox="0 0 37.62 39.36"><defs><style>.cls-1,.cls-5{fill:#fff;}.cls-1{stroke:#409;stroke-miterlimit:10;stroke-width:2px;}.cls-2{opacity:0.4;}.cls-3{fill:#409;}.cls-4{fill:#ff6a13;}</style></defs><g id="Layer_2" data-name="Layer 2"><g id="Layer_1-2" data-name="Layer 1"><rect class="cls-1" x="1" y="1" width="26.99" height="33" rx="4.58"/><g class="cls-2"><rect class="cls-3" x="4.7" y="25.57" width="12.99" height="3.31" rx="1.35"/></g><g class="cls-2"><rect class="cls-3" x="4.7" y="19.42" width="19.23" height="3.31" rx="1.35"/></g><path class="cls-4" d="M6.85,16a1.34,1.34,0,0,1-.94-.37,1.24,1.24,0,0,1,0-1.79l2.46-2.36a1.37,1.37,0,0,1,1.87,0l1.38,1.32,2.86-2.74a1.37,1.37,0,0,1,1.87,0l1.11,1.06,4.22-4a1.37,1.37,0,0,1,1.87,0,1.22,1.22,0,0,1,0,1.79l-5.16,5a1.33,1.33,0,0,1-.93.37,1.36,1.36,0,0,1-.94-.37l-1.11-1.06-2.86,2.74a1.35,1.35,0,0,1-1.86,0L9.31,14.16,7.78,15.62A1.33,1.33,0,0,1,6.85,16Z"/><path class="cls-4" d="M22.62,7.16a.85.85,0,0,1,.59.23.79.79,0,0,1,0,1.13l-5.16,5a.85.85,0,0,1-1.18,0l-1.46-1.4-3.2,3.08a.87.87,0,0,1-1.18,0L9.31,13.49l-1.88,1.8a.86.86,0,0,1-1.17,0,.77.77,0,0,1,0-1.13L8.72,11.8a.86.86,0,0,1,1.17,0l1.73,1.65,3.2-3.07a.86.86,0,0,1,.59-.24.82.82,0,0,1,.59.24l1.46,1.4L22,7.39a.81.81,0,0,1,.59-.23m0-.94a1.82,1.82,0,0,0-1.28.51l-3.88,3.72-.77-.73a1.82,1.82,0,0,0-1.28-.51,1.85,1.85,0,0,0-1.28.51l-2.51,2.41-1-1a1.9,1.9,0,0,0-2.55,0L5.57,13.5a1.68,1.68,0,0,0,0,2.45,1.85,1.85,0,0,0,2.55,0l1.19-1.13,1,1a1.86,1.86,0,0,0,2.56,0l2.51-2.41.77.73a1.86,1.86,0,0,0,2.56,0l5.15-5a1.68,1.68,0,0,0,0-2.45,1.81,1.81,0,0,0-1.27-.51Z"/><path class="cls-4" d="M32.6,38.61a1.34,1.34,0,0,1-.79-.26l-3.9-2.83L24,38.35a1.36,1.36,0,0,1-.8.26,1.35,1.35,0,0,1-1.1-.57,1.31,1.31,0,0,1-.19-1.21l1.49-4.58-3.9-2.84a1.35,1.35,0,0,1-.5-1.52,1.38,1.38,0,0,1,1.3-.94h4.82l1.48-4.58a1.38,1.38,0,0,1,1.3-.94h0a1.35,1.35,0,0,1,1.29.94L30.69,27h4.82a1.35,1.35,0,0,1,1.29.94,1.33,1.33,0,0,1-.49,1.52l-3.9,2.84,1.49,4.58A1.31,1.31,0,0,1,33.71,38,1.36,1.36,0,0,1,32.6,38.61Z"/><path class="cls-5" d="M27.91,22.18a.6.6,0,0,1,.58.42L30,27.28a.61.61,0,0,0,.58.42h4.92a.61.61,0,0,1,.36,1.11l-4,2.89a.58.58,0,0,0-.22.68l1.52,4.68a.61.61,0,0,1-.59.8.53.53,0,0,1-.35-.12l-4-2.89a.62.62,0,0,0-.36-.12.6.6,0,0,0-.36.12l-4,2.89a.56.56,0,0,1-.36.12.61.61,0,0,1-.58-.8l1.52-4.68a.61.61,0,0,0-.22-.68l-4-2.89a.61.61,0,0,1,.36-1.11h4.92a.61.61,0,0,0,.58-.42l1.52-4.68a.59.59,0,0,1,.58-.42m0-1.5a2.11,2.11,0,0,0-2,1.46L24.58,26.2H20.31A2.11,2.11,0,0,0,19.07,30l3.45,2.51L21.2,36.6a2.09,2.09,0,0,0,.3,1.89,2.15,2.15,0,0,0,1.71.87,2.11,2.11,0,0,0,1.24-.4l3.46-2.52L31.37,39a2.1,2.1,0,0,0,1.23.4,2.15,2.15,0,0,0,1.72-.87,2.06,2.06,0,0,0,.29-1.89l-1.32-4.07L36.75,30a2.11,2.11,0,0,0-1.24-3.82H31.24l-1.32-4.06a2.12,2.12,0,0,0-2-1.46Z"/></g></g></svg>