<svg xmlns="http://www.w3.org/2000/svg" viewBox="0 0 28.95 34.98"><defs><style>.cls-1,.cls-5{fill:#fff;}.cls-1{stroke:#409;stroke-miterlimit:10;stroke-width:2px;}.cls-2,.cls-4{fill:#409;}.cls-2{opacity:0.4;}.cls-3{fill:#ff6a13;}</style></defs><g id="Layer_2" data-name="Layer 2"><g id="Layer_1-2" data-name="Layer 1"><rect class="cls-1" x="1" y="1" width="26.95" height="32.98" rx="4.47"/><rect class="cls-2" x="15.33" y="21.07" width="8.93" height="3.14" rx="1.57"/><rect class="cls-2" x="4.7" y="15.62" width="19.4" height="3.14" rx="1.57"/><rect class="cls-3" x="4.7" y="21.07" width="8.93" height="3.14" rx="1.57"/><rect class="cls-4" x="4.7" y="26.52" width="18.74" height="3.14" rx="1.57"/><path class="cls-3" d="M15.91,13.64a1.13,1.13,0,0,1-.89-.46,4.73,4.73,0,0,1-.54,0,4.91,4.91,0,0,1-.55,0,1.09,1.09,0,0,1-1.44.31l-.76-.44a1.07,1.07,0,0,1-.51-.67,1,1,0,0,1,.06-.73,3.92,3.92,0,0,1-.55-1,1.1,1.1,0,0,1-1-1.09V8.73a1.1,1.1,0,0,1,1-1.09,3.92,3.92,0,0,1,.55-.95A1,1,0,0,1,11.22,6a1.11,1.11,0,0,1,.51-.67l.76-.44A1.18,1.18,0,0,1,13,4.71a1.1,1.1,0,0,1,.89.46,3.24,3.24,0,0,1,.55,0,3.27,3.27,0,0,1,.54,0,1.1,1.1,0,0,1,1.45-.31l.75.44a1.06,1.06,0,0,1,.51.66,1,1,0,0,1-.06.73,3.92,3.92,0,0,1,.55.95,1.1,1.1,0,0,1,1,1.09v.88a1.1,1.1,0,0,1-1,1.09,3.92,3.92,0,0,1-.55,1,1.09,1.09,0,0,1-.45,1.4l-.76.44A1.13,1.13,0,0,1,15.91,13.64Z"/><path class="cls-5" d="M15.91,5.69H16l.76.45a.06.06,0,0,1,.05.06.08.08,0,0,1,0,.08.85.85,0,0,0,.08,1,3.08,3.08,0,0,1,.49.84.84.84,0,0,0,.78.54.11.11,0,0,1,.11.11v.88a.11.11,0,0,1-.12.11.83.83,0,0,0-.77.54,3.14,3.14,0,0,1-.49.85.83.83,0,0,0-.08.94.08.08,0,0,1,0,.08.08.08,0,0,1-.05.07l-.76.44-.06,0a.11.11,0,0,1-.09-.06.84.84,0,0,0-.73-.42l-.13,0a3.88,3.88,0,0,1-.48,0,3.89,3.89,0,0,1-.49,0l-.13,0a.84.84,0,0,0-.73.42.1.1,0,0,1-.09.05H13l-.76-.44a.08.08,0,0,1-.05-.07.08.08,0,0,1,0-.08.83.83,0,0,0-.08-.94,3.14,3.14,0,0,1-.49-.85.84.84,0,0,0-.78-.54.1.1,0,0,1-.1-.11V8.73a.1.1,0,0,1,.11-.11.83.83,0,0,0,.77-.54,2.94,2.94,0,0,1,.49-.84.85.85,0,0,0,.08-1,.08.08,0,0,1,0-.08.06.06,0,0,1,.05-.06L13,5.7H13a.12.12,0,0,1,.09,0h0a.84.84,0,0,0,.73.42H14a2.63,2.63,0,0,1,.49,0,2.59,2.59,0,0,1,.48,0h.13a.84.84,0,0,0,.73-.42h0a.12.12,0,0,1,.09,0m0-2a2,2,0,0,0-1.25.42h-.37A2,2,0,0,0,13,3.73,2,2,0,0,0,12,4l-.76.44a2.07,2.07,0,0,0-1,1.25,2,2,0,0,0,0,.8,2.58,2.58,0,0,0-.18.32A2.07,2.07,0,0,0,8.76,8.73v.88A2.07,2.07,0,0,0,10,11.52a2,2,0,0,0,.18.32,2,2,0,0,0,0,.81,2.07,2.07,0,0,0,1,1.24l.78.45a2,2,0,0,0,2.29-.15h.37a2.08,2.08,0,0,0,1.25.43A2,2,0,0,0,17,14.33l.75-.43a2,2,0,0,0,1-1.26,2,2,0,0,0,.05-.8,2,2,0,0,0,.18-.32,2.07,2.07,0,0,0,1.28-1.91V8.73a2.07,2.07,0,0,0-1.28-1.91,1.92,1.92,0,0,0-.18-.31,2,2,0,0,0-.05-.81,2.11,2.11,0,0,0-1-1.26L17,4a2.15,2.15,0,0,0-1-.27Z"/><path class="cls-5" d="M15.91,13.15a.61.61,0,0,1-.52-.31.35.35,0,0,0-.3-.17H15a3.22,3.22,0,0,1-1.13,0h-.05a.34.34,0,0,0-.3.18.62.62,0,0,1-.52.3.59.59,0,0,1-.31-.09L12,12.62a.59.59,0,0,1-.28-.36.57.57,0,0,1,.07-.46.35.35,0,0,0,0-.38,3.47,3.47,0,0,1-.56-1,.36.36,0,0,0-.33-.22.6.6,0,0,1-.6-.6V8.73a.6.6,0,0,1,.61-.6.36.36,0,0,0,.32-.22,3.29,3.29,0,0,1,.56-1,.35.35,0,0,0,0-.39.61.61,0,0,1-.06-.46A.59.59,0,0,1,12,5.72l.77-.44A.61.61,0,0,1,13,5.2a.6.6,0,0,1,.5.27l0,0a.34.34,0,0,0,.29.16h.05a3.64,3.64,0,0,1,.57,0,3.6,3.6,0,0,1,.56,0h.05a.35.35,0,0,0,.3-.17.61.61,0,0,1,.52-.3.68.68,0,0,1,.31.08l.76.44a.58.58,0,0,1,.28.37.59.59,0,0,1-.06.45.35.35,0,0,0,0,.39,3.54,3.54,0,0,1,.57,1,.34.34,0,0,0,.32.22.6.6,0,0,1,.6.6v.88a.6.6,0,0,1-.6.6.34.34,0,0,0-.32.22,3.75,3.75,0,0,1-.57,1,.33.33,0,0,0,0,.38.61.61,0,0,1,.06.46.59.59,0,0,1-.28.36l-.77.44A.53.53,0,0,1,15.91,13.15Z"/><path class="cls-3" d="M15.91,5.69H16l.76.45a.06.06,0,0,1,.05.06.08.08,0,0,1,0,.08.85.85,0,0,0,.08,1,3.08,3.08,0,0,1,.49.84.84.84,0,0,0,.78.54.11.11,0,0,1,.11.11v.88a.11.11,0,0,1-.12.11.83.83,0,0,0-.77.54,3.14,3.14,0,0,1-.49.85.83.83,0,0,0-.08.94.08.08,0,0,1,0,.08.08.08,0,0,1-.05.07l-.76.44-.06,0a.11.11,0,0,1-.09-.06.84.84,0,0,0-.73-.42l-.13,0a3.88,3.88,0,0,1-.48,0,3.89,3.89,0,0,1-.49,0l-.13,0a.84.84,0,0,0-.73.42.1.1,0,0,1-.09.05H13l-.76-.44a.08.08,0,0,1-.05-.07.08.08,0,0,1,0-.08.83.83,0,0,0-.08-.94,3.14,3.14,0,0,1-.49-.85.84.84,0,0,0-.78-.54.1.1,0,0,1-.1-.11V8.73a.1.1,0,0,1,.11-.11.83.83,0,0,0,.77-.54,2.94,2.94,0,0,1,.49-.84.85.85,0,0,0,.08-1,.08.08,0,0,1,0-.08.06.06,0,0,1,.05-.06L13,5.7H13a.12.12,0,0,1,.09,0h0a.84.84,0,0,0,.73.42H14a2.63,2.63,0,0,1,.49,0,2.59,2.59,0,0,1,.48,0h.13a.84.84,0,0,0,.73-.42h0a.12.12,0,0,1,.09,0m0-1a1.1,1.1,0,0,0-.89.46,3.27,3.27,0,0,0-.54,0,3.31,3.31,0,0,0-.55,0A1.1,1.1,0,0,0,13,4.71a1.06,1.06,0,0,0-.55.15l-.76.44a1.08,1.08,0,0,0-.45,1.39,3.92,3.92,0,0,0-.55.95,1.1,1.1,0,0,0-1,1.09v.88a1.1,1.1,0,0,0,1,1.09,3.92,3.92,0,0,0,.55,1A1.09,1.09,0,0,0,11.72,13l.77.45a1.09,1.09,0,0,0,1.44-.31,4.91,4.91,0,0,0,.55,0,4.9,4.9,0,0,0,.54,0,1.09,1.09,0,0,0,1.44.31l.76-.44a1.09,1.09,0,0,0,.45-1.4,3.92,3.92,0,0,0,.55-1,1.1,1.1,0,0,0,1-1.09V8.73a1.1,1.1,0,0,0-1-1.09,3.92,3.92,0,0,0-.55-.95A1,1,0,0,0,17.73,6a1.08,1.08,0,0,0-.51-.67l-.76-.44a1.12,1.12,0,0,0-.55-.14Z"/><path class="cls-5" d="M18.23,9.61a.11.11,0,0,1-.12.11.83.83,0,0,0-.77.54,3.14,3.14,0,0,1-.49.85.83.83,0,0,0-.08.94.08.08,0,0,1,0,.08.08.08,0,0,1-.05.07l-.76.44a.11.11,0,0,1-.15,0,.83.83,0,0,0-.86-.4,3.16,3.16,0,0,1-1,0,.83.83,0,0,0-.86.4.11.11,0,0,1-.15,0l-.76-.44a.08.08,0,0,1-.05-.07.08.08,0,0,1,0-.08.83.83,0,0,0-.08-.94,3.14,3.14,0,0,1-.49-.85.84.84,0,0,0-.78-.54.1.1,0,0,1-.1-.11V8.73a.1.1,0,0,1,.11-.11.83.83,0,0,0,.77-.54,2.94,2.94,0,0,1,.49-.84.85.85,0,0,0,.08-1,.08.08,0,0,1,0-.08.06.06,0,0,1,.05-.06L13,5.7H13a.12.12,0,0,1,.09,0h0a.85.85,0,0,0,.86.41,2.64,2.64,0,0,1,1,0,.86.86,0,0,0,.86-.41h0a.11.11,0,0,1,.15,0l.76.45a.06.06,0,0,1,.05.06.08.08,0,0,1,0,.08.85.85,0,0,0,.08,1,3.08,3.08,0,0,1,.49.84.84.84,0,0,0,.78.54.11.11,0,0,1,.11.11Z"/><path class="cls-3" d="M14.48,7.52a1.65,1.65,0,1,0,1.64,1.65A1.65,1.65,0,0,0,14.48,7.52Zm0,2.57a.92.92,0,1,1,.92-.92A.93.93,0,0,1,14.48,10.09Z"/></g></g></svg>