<svg xmlns="http://www.w3.org/2000/svg" viewBox="0 0 43.58 35.19"><defs><style>.cls-1,.cls-3{fill:#fff;}.cls-1{stroke:#409;stroke-miterlimit:10;stroke-width:2px;}.cls-2{fill:#ff6a13;}.cls-4{fill:#409;}.cls-5{opacity:0.4;}</style></defs><g id="Layer_2" data-name="Layer 2"><g id="Layer_1-2" data-name="Layer 1"><path class="cls-1" d="M36.47,1H17.13A6.1,6.1,0,0,0,11,7.11V21.68a6.1,6.1,0,0,0,6.11,6.1h5.49s-.24,3-4.46,6.37c0,0,8.64,1,12.05-6.37h6.26a6.11,6.11,0,0,0,6.11-6.1V7.11A6.11,6.11,0,0,0,36.47,1Z"/><path class="cls-2" d="M36.77,6.75a1.31,1.31,0,0,0-1.26-.34l-3.41.91a1.33,1.33,0,0,0-.92.93,1.28,1.28,0,0,0,.34,1.26l.33.34-2.41,2.41L26.22,9a1.31,1.31,0,0,0-1.85,0l-4.5,4.5a1.3,1.3,0,1,0,1.84,1.85l3.59-3.58L28.52,15a1.31,1.31,0,0,0,1.85,0l3.33-3.34L34,12a1.3,1.3,0,0,0,.92.39,1.33,1.33,0,0,0,.34-.05,1.3,1.3,0,0,0,.92-.92L37.11,8A1.31,1.31,0,0,0,36.77,6.75Z"/><path class="cls-2" d="M11.6,21.71A1.79,1.79,0,0,1,10.16,21a6.42,6.42,0,0,1-.89.07A6.54,6.54,0,0,1,8.38,21a1.78,1.78,0,0,1-1.45.75A1.76,1.76,0,0,1,6,21.46l-1.23-.71A1.73,1.73,0,0,1,4,19.67a1.77,1.77,0,0,1,.1-1.18,7.24,7.24,0,0,1-.89-1.55,1.77,1.77,0,0,1-1.6-1.76V13.74A1.79,1.79,0,0,1,3.19,12a6.94,6.94,0,0,1,.89-1.54A1.8,1.8,0,0,1,4,9.25a1.76,1.76,0,0,1,.84-1.08l1.23-.71a1.74,1.74,0,0,1,.88-.24A1.79,1.79,0,0,1,8.38,8a6.33,6.33,0,0,1,.89-.06,6.77,6.77,0,0,1,.89.06,1.78,1.78,0,0,1,2.34-.5l1.23.71a1.76,1.76,0,0,1,.82,1.08,1.74,1.74,0,0,1-.1,1.19A6.24,6.24,0,0,1,15.34,12a1.78,1.78,0,0,1,1.6,1.76v1.44a1.76,1.76,0,0,1-1.6,1.76,6.24,6.24,0,0,1-.89,1.54,1.77,1.77,0,0,1-.72,2.27l-1.25.72A1.79,1.79,0,0,1,11.6,21.71Z"/><path class="cls-3" d="M11.6,8.81l.09,0,1.24.72a.16.16,0,0,1,.08.11.15.15,0,0,1,0,.13,1.36,1.36,0,0,0,.12,1.53,4.94,4.94,0,0,1,.79,1.37,1.36,1.36,0,0,0,1.27.88.18.18,0,0,1,.17.17v1.44a.18.18,0,0,1-.18.18,1.36,1.36,0,0,0-1.26.87,4.8,4.8,0,0,1-.79,1.37A1.36,1.36,0,0,0,13,19.13a.17.17,0,0,1,0,.14.14.14,0,0,1-.08.1l-1.24.72a.15.15,0,0,1-.09,0,.16.16,0,0,1-.15-.09,1.37,1.37,0,0,0-1.18-.67l-.22,0a5.12,5.12,0,0,1-.78.06,5.35,5.35,0,0,1-.79-.06l-.22,0A1.34,1.34,0,0,0,7.09,20a.19.19,0,0,1-.16.08.11.11,0,0,1-.08,0L5.6,19.37a.18.18,0,0,1-.08-.1.18.18,0,0,1,0-.14,1.34,1.34,0,0,0-.13-1.53,5,5,0,0,1-.79-1.37,1.34,1.34,0,0,0-1.26-.87.18.18,0,0,1-.18-.18V13.74a.18.18,0,0,1,.18-.17,1.34,1.34,0,0,0,1.26-.88,5.2,5.2,0,0,1,.79-1.37,1.34,1.34,0,0,0,.13-1.53.16.16,0,0,1,0-.13.19.19,0,0,1,.08-.11l1.25-.72.08,0a.18.18,0,0,1,.15.08h0a1.34,1.34,0,0,0,1.17.67h.22a4.29,4.29,0,0,1,.79-.07,4.11,4.11,0,0,1,.78.07h.22a1.37,1.37,0,0,0,1.18-.67h0a.19.19,0,0,1,.15-.08m0-3.18a3.36,3.36,0,0,0-2,.68H9a3.36,3.36,0,0,0-2-.68,3.47,3.47,0,0,0-1.69.45L4,6.79a3.34,3.34,0,0,0-1.56,2,3.19,3.19,0,0,0-.09,1.3c-.11.17-.2.34-.3.52A3.34,3.34,0,0,0,0,13.74v1.44a3.37,3.37,0,0,0,2.06,3.1l.3.51a3.41,3.41,0,0,0,.09,1.31,3.31,3.31,0,0,0,1.54,2l1.27.74a3.32,3.32,0,0,0,1.67.45,3.37,3.37,0,0,0,2-.69h.6a3.34,3.34,0,0,0,2,.69,3.27,3.27,0,0,0,1.7-.47l1.22-.7a3.34,3.34,0,0,0,1.57-2,3.58,3.58,0,0,0,.09-1.3c.1-.17.2-.34.29-.51a3.37,3.37,0,0,0,2.06-3.1V13.74a3.37,3.37,0,0,0-2.06-3.1c-.09-.17-.19-.34-.29-.5a3.63,3.63,0,0,0-.09-1.31,3.37,3.37,0,0,0-1.58-2l-1.23-.71a3.32,3.32,0,0,0-1.68-.45Z"/><path class="cls-4" d="M11.6,20.91a1,1,0,0,1-.84-.49.57.57,0,0,0-.49-.27h-.09a5.59,5.59,0,0,1-.91.08,5.82,5.82,0,0,1-.92-.08H8.26a.55.55,0,0,0-.48.27,1,1,0,0,1-.85.49,1.05,1.05,0,0,1-.49-.13l-1.23-.72a1,1,0,0,1-.46-.59,1,1,0,0,1,.1-.74.58.58,0,0,0,0-.63,5.74,5.74,0,0,1-.92-1.59.57.57,0,0,0-.52-.36,1,1,0,0,1-1-1V13.74a1,1,0,0,1,1-1,.57.57,0,0,0,.52-.36,5.89,5.89,0,0,1,.92-1.59.58.58,0,0,0,0-.63,1,1,0,0,1-.1-.74,1,1,0,0,1,.46-.59l1.24-.72A1,1,0,0,1,6.93,8a1,1,0,0,1,.82.45l0,.07a.57.57,0,0,0,.47.25h.1a5.22,5.22,0,0,1,1.82,0h.09a.58.58,0,0,0,.49-.28A1,1,0,0,1,11.6,8a1,1,0,0,1,.49.14l1.24.71a1,1,0,0,1,.45.59,1,1,0,0,1-.1.75.55.55,0,0,0,.06.62,5.61,5.61,0,0,1,.91,1.59.57.57,0,0,0,.53.36,1,1,0,0,1,1,1v1.44a1,1,0,0,1-1,1,.58.58,0,0,0-.52.36,5.47,5.47,0,0,1-.91,1.59.54.54,0,0,0-.05.63,1,1,0,0,1,.09.74.92.92,0,0,1-.45.59l-1.24.72A1.05,1.05,0,0,1,11.6,20.91Z"/><path class="cls-4" d="M11.6,8.81l.09,0,1.24.72a.16.16,0,0,1,.08.11.15.15,0,0,1,0,.13,1.36,1.36,0,0,0,.12,1.53,4.94,4.94,0,0,1,.79,1.37,1.36,1.36,0,0,0,1.27.88.18.18,0,0,1,.17.17v1.44a.18.18,0,0,1-.18.18,1.36,1.36,0,0,0-1.26.87,4.8,4.8,0,0,1-.79,1.37A1.36,1.36,0,0,0,13,19.13a.17.17,0,0,1,0,.14.14.14,0,0,1-.08.1l-1.24.72a.15.15,0,0,1-.09,0,.16.16,0,0,1-.15-.09,1.37,1.37,0,0,0-1.18-.67l-.22,0a5.12,5.12,0,0,1-.78.06,5.35,5.35,0,0,1-.79-.06l-.22,0A1.34,1.34,0,0,0,7.09,20a.19.19,0,0,1-.16.08.11.11,0,0,1-.08,0L5.6,19.37a.18.18,0,0,1-.08-.1.18.18,0,0,1,0-.14,1.34,1.34,0,0,0-.13-1.53,5,5,0,0,1-.79-1.37,1.34,1.34,0,0,0-1.26-.87.18.18,0,0,1-.18-.18V13.74a.18.18,0,0,1,.18-.17,1.34,1.34,0,0,0,1.26-.88,5.2,5.2,0,0,1,.79-1.37,1.34,1.34,0,0,0,.13-1.53.16.16,0,0,1,0-.13.19.19,0,0,1,.08-.11l1.25-.72.08,0a.18.18,0,0,1,.15.08h0a1.34,1.34,0,0,0,1.17.67h.22a4.29,4.29,0,0,1,.79-.07,4.11,4.11,0,0,1,.78.07h.22a1.37,1.37,0,0,0,1.18-.67h0a.19.19,0,0,1,.15-.08m0-1.59A1.74,1.74,0,0,0,10.16,8a6.77,6.77,0,0,0-.89-.06A6.54,6.54,0,0,0,8.38,8a1.8,1.8,0,0,0-1.45-.74A1.75,1.75,0,0,0,6,7.46l-1.23.71A1.78,1.78,0,0,0,4,9.25a1.8,1.8,0,0,0,.1,1.19A6.94,6.94,0,0,0,3.19,12a1.79,1.79,0,0,0-1.6,1.76v1.44a1.77,1.77,0,0,0,1.6,1.76,6.94,6.94,0,0,0,.89,1.54A1.77,1.77,0,0,0,4,19.68a1.7,1.7,0,0,0,.81,1.06l1.25.73A1.76,1.76,0,0,0,8.38,21a6.54,6.54,0,0,0,.89.07,6.8,6.8,0,0,0,.89-.07,1.75,1.75,0,0,0,2.34.5l1.23-.71a1.77,1.77,0,0,0,.72-2.27,6.24,6.24,0,0,0,.89-1.54,1.77,1.77,0,0,0,1.6-1.76V13.74A1.78,1.78,0,0,0,15.34,12a6.24,6.24,0,0,0-.89-1.54,1.77,1.77,0,0,0-.73-2.27l-1.24-.71a1.64,1.64,0,0,0-.88-.24Z"/><path class="cls-3" d="M15.35,15.18a.18.18,0,0,1-.18.18,1.36,1.36,0,0,0-1.26.87,4.8,4.8,0,0,1-.79,1.37A1.36,1.36,0,0,0,13,19.13a.17.17,0,0,1,0,.14.14.14,0,0,1-.08.1l-1.24.72a.17.17,0,0,1-.24-.07,1.37,1.37,0,0,0-1.4-.65,4.6,4.6,0,0,1-1.57,0A1.35,1.35,0,0,0,7.09,20a.18.18,0,0,1-.24.06L5.6,19.37a.18.18,0,0,1-.08-.1.18.18,0,0,1,0-.14,1.34,1.34,0,0,0-.13-1.53,5,5,0,0,1-.79-1.37,1.34,1.34,0,0,0-1.26-.87.18.18,0,0,1-.18-.18V13.74a.18.18,0,0,1,.18-.17,1.34,1.34,0,0,0,1.26-.88,5.2,5.2,0,0,1,.79-1.37,1.34,1.34,0,0,0,.13-1.53.16.16,0,0,1,0-.13.19.19,0,0,1,.08-.11l1.25-.72.08,0a.18.18,0,0,1,.15.08h0a1.37,1.37,0,0,0,1.39.66,4.6,4.6,0,0,1,1.57,0,1.38,1.38,0,0,0,1.4-.66h0a.18.18,0,0,1,.24-.06l1.24.72a.16.16,0,0,1,.08.11.15.15,0,0,1,0,.13,1.36,1.36,0,0,0,.12,1.53,4.94,4.94,0,0,1,.79,1.37,1.36,1.36,0,0,0,1.27.88.18.18,0,0,1,.17.17Z"/><path class="cls-4" d="M9.27,11.79a2.68,2.68,0,1,0,2.67,2.67A2.68,2.68,0,0,0,9.27,11.79Zm0,4.17a1.5,1.5,0,1,1,1.49-1.5A1.5,1.5,0,0,1,9.27,16Z"/><g class="cls-5"><path class="cls-4" d="M18.54,19.29h9.05a1.84,1.84,0,0,1,0,3.67h-9a1.84,1.84,0,0,1,0-3.67Z"/></g><g class="cls-5"><path class="cls-4" d="M32.44,19.29h4.11a1.84,1.84,0,0,1,0,3.67H32.44a1.84,1.84,0,0,1,0-3.67Z"/></g></g></g></svg>