<svg xmlns="http://www.w3.org/2000/svg" viewBox="0 0 44.45 35.61"><defs><style>.cls-1,.cls-6,.cls-7{fill:#fff;}.cls-1{stroke:#409;}.cls-1,.cls-4{stroke-miterlimit:10;stroke-width:2px;}.cls-2{opacity:0.4;}.cls-3{fill:#409;}.cls-4,.cls-5{fill:#ff6a13;}.cls-4{stroke:#fff;}.cls-7{opacity:0.6;}</style></defs><g id="Layer_2" data-name="Layer 2"><g id="Layer_1-2" data-name="Layer 1"><rect class="cls-1" x="4.01" y="4.61" width="26.99" height="33" rx="4.58" transform="translate(-3.61 38.62) rotate(-90)"/><g class="cls-2"><rect class="cls-3" x="17.5" y="26.99" width="12.99" height="3.31" rx="1.35"/></g><path class="cls-4" d="M38.87,1H24.37a4.58,4.58,0,0,0-4.58,4.58V16.5a4.58,4.58,0,0,0,4.58,4.58h4.12s-.18,2.25-3.34,4.77c0,0,6.47.75,9-4.77h4.69a4.58,4.58,0,0,0,4.58-4.58V5.58A4.58,4.58,0,0,0,38.87,1Z"/><polygon class="cls-5" points="8.73 12.26 5.97 22.64 9.37 22.64 7.67 29.96 14.83 19.92 12.1 19.92 14.83 12.26 8.73 12.26"/><rect class="cls-6" x="24.19" y="9.17" width="14.45" height="2.53" rx="1.17"/><rect class="cls-6" x="24.19" y="13.95" width="11.96" height="2.53" rx="1.17"/><rect class="cls-7" x="24.19" y="4.72" width="7.23" height="2.53" rx="1.17"/></g></g></svg>