<?xml version="1.0" encoding="utf-8"?>
<!-- Generator: Adobe Illustrator 24.1.1, SVG Export Plug-In . SVG Version: 6.00 Build 0)  -->
<svg version="1.1" xmlns="http://www.w3.org/2000/svg" xmlns:xlink="http://www.w3.org/1999/xlink" x="0px" y="0px"
	 viewBox="0 0 38.1 39.5" style="enable-background:new 0 0 38.1 39.5;" xml:space="preserve">
<style type="text/css">
	.st0{opacity:0.4;fill:#440099;}
	.st1{fill:#FFFFFF;}
	.st2{fill:#440099;}
	.st3{opacity:0.4;}
</style>
<g id="flechas">
	<path class="st0" d="M29.3,5.8l1.9,1.9c0.2,0.2,0.6,0.2,0.9,0c0.2-0.2,0.2-0.6,0-0.9l-0.9-0.9h3.3c0.3,0,0.6-0.3,0.6-0.6
		c0-0.3-0.3-0.6-0.6-0.6h-3.1L31.9,4c0.2-0.2,0.2-0.6,0-0.9C31.8,3,31.6,3,31.5,3c-0.2,0-0.3,0.1-0.4,0.2l-1.8,1.8
		C29,5.2,29,5.6,29.3,5.8z"/>
	<path class="st0" d="M10.6,25.9L8.7,24c-0.2-0.2-0.6-0.2-0.9,0c-0.2,0.2-0.2,0.6,0,0.9l0.9,0.9H5.5c-0.3,0-0.6,0.3-0.6,0.6
		S5.2,27,5.5,27h3.1L8,27.7c-0.2,0.2-0.2,0.6,0,0.9c0.1,0.1,0.3,0.2,0.4,0.2c0.2,0,0.3-0.1,0.4-0.2l1.8-1.8
		C10.8,26.5,10.8,26.1,10.6,25.9z"/>
</g>
<g id="tuercas">
	<g>
		<g>
			<path class="st1" d="M35.7,21.6H34c-0.3,0-0.5-0.2-0.6-0.4c-0.1-0.2-0.2-0.5-0.3-0.7c-0.1-0.2-0.1-0.5,0.1-0.7l1.2-1.2
				c0.3-0.3,0.3-0.7,0-0.9l-2.2-2.2c-0.3-0.3-0.7-0.3-0.9,0l-1.2,1.2c-0.2,0.2-0.5,0.3-0.7,0.1c-0.2-0.1-0.5-0.2-0.7-0.3
				c-0.3-0.1-0.4-0.3-0.4-0.6v-1.7c0-0.4-0.3-0.7-0.7-0.7H27h-2.5c-0.4,0-0.7,0.3-0.7,0.7v1.7c0,0.3-0.2,0.5-0.4,0.6
				c-0.2,0.1-0.5,0.2-0.7,0.3c-0.2,0.1-0.5,0.1-0.7-0.1l-1.2-1.2c-0.3-0.3-0.7-0.3-0.9,0l-2.2,2.2c-0.3,0.3-0.3,0.7,0,0.9l1.2,1.2
				c0.2,0.2,0.3,0.5,0.1,0.7c-0.1,0.2-0.2,0.5-0.3,0.7c-0.1,0.3-0.3,0.4-0.6,0.4h-1.7c-0.4,0-0.7,0.3-0.7,0.7v3.1
				c0,0.4,0.3,0.7,0.7,0.7h1.7c0.3,0,0.5,0.2,0.6,0.4c0.1,0.2,0.2,0.5,0.3,0.7c0.1,0.2,0.1,0.5-0.1,0.7l-1.2,1.2
				c-0.3,0.3-0.3,0.7,0,0.9l2.2,2.2c0.3,0.3,0.7,0.3,0.9,0L22,31c0.2-0.2,0.5-0.3,0.7-0.1c0.2,0.1,0.5,0.2,0.7,0.3
				c0.3,0.1,0.4,0.3,0.4,0.6v1.7c0,0.4,0.3,0.7,0.7,0.7H27h0.6c0.4,0,0.7-0.3,0.7-0.7v-1.7c0-0.3,0.2-0.5,0.4-0.6
				c0.2-0.1,0.5-0.2,0.7-0.3c0.2-0.1,0.5-0.1,0.7,0.1l1.2,1.2c0.3,0.3,0.7,0.3,0.9,0l2.2-2.2c0.3-0.3,0.3-0.7,0-0.9l-1.2-1.2
				c-0.2-0.2-0.3-0.5-0.1-0.7c0.1-0.2,0.2-0.5,0.3-0.7c0.1-0.3,0.3-0.4,0.6-0.4h1.7c0.4,0,0.7-0.3,0.7-0.7v-3.1
				C36.4,21.9,36.1,21.6,35.7,21.6z"/>
			<path class="st2" d="M27.6,35.2h-3.1c-1,0-1.8-0.8-1.8-1.8v-1.4c-0.1,0-0.1,0-0.2-0.1l-1,1c-0.7,0.7-1.8,0.7-2.5,0l-2.2-2.2
				c-0.3-0.3-0.5-0.8-0.5-1.2s0.2-0.9,0.5-1.2l1-1c0-0.1-0.1-0.1-0.1-0.2h-1.4c-1,0-1.8-0.8-1.8-1.8v-3.1c0-1,0.8-1.8,1.8-1.8h1.4
				c0-0.1,0-0.1,0.1-0.2l-1-1c-0.7-0.7-0.7-1.8,0-2.5l2.2-2.2c0.7-0.7,1.8-0.7,2.5,0l1,1c0.1,0,0.1-0.1,0.2-0.1v-1.4
				c0-1,0.8-1.8,1.8-1.8h3.1c1,0,1.8,0.8,1.8,1.8v1.4c0.1,0,0.1,0,0.2,0.1l1-1c0.7-0.7,1.8-0.7,2.5,0l2.2,2.2
				c0.3,0.3,0.5,0.8,0.5,1.2c0,0.5-0.2,0.9-0.5,1.2l-1,1c0,0.1,0.1,0.1,0.1,0.2h1.4c1,0,1.8,0.8,1.8,1.8v3.1c0,1-0.8,1.8-1.8,1.8
				h-1.4c0,0.1,0,0.1-0.1,0.2l1,1c0.3,0.3,0.5,0.8,0.5,1.2c0,0.5-0.2,0.9-0.5,1.2L33.1,33c-0.7,0.7-1.8,0.7-2.5,0l-1-1
				c-0.1,0-0.1,0.1-0.2,0.1v1.4C29.4,34.5,28.6,35.2,27.6,35.2z M25,33h2.2v-1.3c0-0.7,0.5-1.4,1.2-1.7c0.2-0.1,0.4-0.2,0.6-0.2
				c0.7-0.3,1.5-0.2,2,0.4l0.9,0.9l1.6-1.6l-0.9-0.9c-0.5-0.5-0.7-1.3-0.4-2c0.1-0.2,0.2-0.4,0.2-0.6c0.2-0.7,0.9-1.2,1.7-1.2h1.3
				v-2.2H34c-0.7,0-1.4-0.5-1.7-1.2c-0.1-0.2-0.2-0.4-0.2-0.6c-0.3-0.7-0.2-1.5,0.4-2l0.9-0.9l-1.6-1.6l-0.9,0.9
				c-0.5,0.5-1.3,0.7-2,0.4c-0.2-0.1-0.4-0.2-0.6-0.2c-0.7-0.2-1.2-0.9-1.2-1.7v-1.3H25v1.3c0,0.7-0.5,1.4-1.2,1.7
				c-0.2,0.1-0.4,0.2-0.6,0.2c-0.7,0.3-1.5,0.2-2-0.4l-0.9-0.9l-1.6,1.6l0.9,0.9c0.5,0.5,0.7,1.3,0.4,2c-0.1,0.2-0.2,0.4-0.2,0.6
				c-0.2,0.7-0.9,1.2-1.7,1.2h-1.3v2.2h1.3c0.7,0,1.4,0.5,1.7,1.2c0.1,0.2,0.2,0.4,0.2,0.6c0.3,0.7,0.2,1.5-0.4,2l-0.9,0.9l1.6,1.6
				l0.9-0.9c0.5-0.5,1.3-0.7,2-0.4c0.2,0.1,0.4,0.2,0.6,0.2c0.7,0.2,1.2,0.9,1.2,1.7V33z M23.1,32.2C23.1,32.2,23.1,32.2,23.1,32.2
				C23.1,32.2,23.1,32.2,23.1,32.2z M29.1,32.2C29.1,32.2,29.1,32.2,29.1,32.2C29.1,32.2,29.1,32.2,29.1,32.2z M17.7,26.8
				C17.7,26.8,17.7,26.8,17.7,26.8C17.7,26.8,17.7,26.8,17.7,26.8z M34.5,26.8C34.5,26.8,34.5,26.8,34.5,26.8
				C34.5,26.8,34.5,26.8,34.5,26.8z M35.7,22.7L35.7,22.7L35.7,22.7z M34.5,20.8C34.5,20.8,34.5,20.8,34.5,20.8
				C34.5,20.8,34.5,20.8,34.5,20.8z M34.1,20.1C34.1,20.1,34.1,20.1,34.1,20.1C34.1,20.1,34.1,20.1,34.1,20.1z M22.3,15.8
				C22.3,15.8,22.3,15.8,22.3,15.8C22.3,15.8,22.3,15.8,22.3,15.8z"/>
		</g>
		<g class="st3">
			<path class="st2" d="M26.1,28.5c-2.6,0-4.7-2.1-4.7-4.7c0-2.6,2.1-4.7,4.7-4.7s4.7,2.1,4.7,4.7C30.8,26.4,28.7,28.5,26.1,28.5z
				 M26.1,21.4c-1.4,0-2.5,1.1-2.5,2.5c0,1.4,1.1,2.5,2.5,2.5c1.4,0,2.5-1.1,2.5-2.5C28.6,22.5,27.4,21.4,26.1,21.4z"/>
		</g>
	</g>
	<g>
		<g>
			<path class="st1" d="M16.7,9.8h-1.2c-0.2,0-0.4-0.1-0.4-0.3C15,9.4,15,9.2,14.9,9c-0.1-0.2,0-0.4,0.1-0.5l0.9-0.9
				C16,7.5,16,7.2,15.8,7l-1.6-1.6c-0.2-0.2-0.5-0.2-0.7,0l-0.9,0.9c-0.1,0.1-0.3,0.2-0.5,0.1c-0.2-0.1-0.3-0.1-0.5-0.2
				c-0.2-0.1-0.3-0.2-0.3-0.4V4.5c0-0.3-0.2-0.5-0.5-0.5h-0.4H8.7c-0.3,0-0.5,0.2-0.5,0.5v1.2c0,0.2-0.1,0.4-0.3,0.4
				C7.8,6.2,7.6,6.3,7.5,6.4c-0.2,0.1-0.4,0-0.5-0.1L6.1,5.4c-0.2-0.2-0.5-0.2-0.7,0L3.8,7c-0.2,0.2-0.2,0.5,0,0.7l0.9,0.9
				C4.8,8.7,4.9,8.9,4.8,9C4.7,9.2,4.7,9.4,4.6,9.5C4.5,9.7,4.4,9.8,4.2,9.8H2.9c-0.3,0-0.5,0.2-0.5,0.5v2.2c0,0.3,0.2,0.5,0.5,0.5
				h1.2c0.2,0,0.4,0.1,0.4,0.3c0.1,0.2,0.1,0.3,0.2,0.5c0.1,0.2,0,0.4-0.1,0.5l-0.9,0.9c-0.2,0.2-0.2,0.5,0,0.7l1.6,1.6
				c0.2,0.2,0.5,0.2,0.7,0l0.9-0.9c0.1-0.1,0.3-0.2,0.5-0.1c0.2,0.1,0.3,0.1,0.5,0.2c0.2,0.1,0.3,0.2,0.3,0.4v1.2
				c0,0.3,0.2,0.5,0.5,0.5h1.8H11c0.3,0,0.5-0.2,0.5-0.5v-1.2c0-0.2,0.1-0.4,0.3-0.4c0.2-0.1,0.3-0.1,0.5-0.2c0.2-0.1,0.4,0,0.5,0.1
				l0.9,0.9c0.2,0.2,0.5,0.2,0.7,0l1.6-1.6c0.2-0.2,0.2-0.5,0-0.7L15,14.3c-0.1-0.1-0.2-0.3-0.1-0.5c0.1-0.2,0.1-0.3,0.2-0.5
				c0.1-0.2,0.2-0.3,0.4-0.3h1.2c0.3,0,0.5-0.2,0.5-0.5v-2.2C17.2,10.1,17,9.8,16.7,9.8z"/>
			<path class="st2" d="M11,19.6H8.7c-0.7,0-1.3-0.6-1.3-1.3v-1c0,0-0.1,0-0.1-0.1L6.6,18c-0.5,0.5-1.3,0.5-1.8,0l-1.6-1.6
				c-0.2-0.2-0.4-0.6-0.4-0.9c0-0.3,0.1-0.7,0.4-0.9L4,13.9c0,0,0-0.1-0.1-0.1h-1c-0.7,0-1.3-0.6-1.3-1.3v-2.2
				c0-0.7,0.6-1.3,1.3-1.3h1C4,9,4,9,4,8.9L3.3,8.2C3,8,2.9,7.7,2.9,7.3C2.9,7,3,6.7,3.3,6.4l1.6-1.6c0.5-0.5,1.3-0.5,1.8,0l0.7,0.7
				c0,0,0.1,0,0.1-0.1v-1c0-0.7,0.6-1.3,1.3-1.3H11c0.7,0,1.3,0.6,1.3,1.3v1c0,0,0.1,0,0.1,0.1L13,4.9c0.5-0.5,1.3-0.5,1.8,0
				l1.6,1.6c0.5,0.5,0.5,1.3,0,1.8l-0.7,0.7c0,0,0,0.1,0.1,0.1h1c0.7,0,1.3,0.6,1.3,1.3v2.2c0,0.7-0.6,1.3-1.3,1.3h-1
				c0,0,0,0.1-0.1,0.1l0.7,0.7c0.5,0.5,0.5,1.3,0,1.8L14.8,18c-0.2,0.2-0.6,0.4-0.9,0.4c0,0,0,0,0,0c-0.3,0-0.7-0.1-0.9-0.4
				l-0.7-0.7c0,0-0.1,0-0.1,0.1v1C12.2,19,11.6,19.6,11,19.6z M9.1,18h1.6v-0.9c0-0.5,0.3-1,0.8-1.2c0.1-0.1,0.3-0.1,0.4-0.2
				c0.5-0.2,1-0.1,1.4,0.3l0.6,0.6l1.1-1.1l-0.6-0.6c-0.4-0.4-0.5-0.9-0.3-1.4c0.1-0.1,0.1-0.3,0.2-0.4c0.2-0.5,0.7-0.8,1.2-0.8h0.9
				v-1.6h-0.9c-0.5,0-1-0.3-1.2-0.8c-0.1-0.1-0.1-0.3-0.2-0.4c-0.2-0.5-0.1-1,0.3-1.4l0.6-0.6l-1.1-1.1l-0.6,0.6
				c-0.4,0.4-0.9,0.5-1.4,0.3C11.7,7,11.6,7,11.5,6.9c-0.5-0.2-0.8-0.7-0.8-1.2V4.8H9.1v0.9c0,0.5-0.3,1-0.8,1.2
				C8.1,7,7.9,7,7.8,7.1c-0.5,0.2-1,0.1-1.4-0.3L5.7,6.2L4.6,7.3L5.3,8c0.4,0.4,0.5,0.9,0.3,1.4C5.5,9.5,5.4,9.7,5.3,9.8
				c-0.2,0.5-0.7,0.8-1.2,0.8H3.3v1.6h0.9c0.5,0,1,0.3,1.2,0.8c0.1,0.1,0.1,0.3,0.2,0.4c0.2,0.5,0.1,1-0.3,1.4l-0.6,0.6l1.1,1.1
				L6.4,16c0.4-0.4,0.9-0.5,1.4-0.3c0.1,0.1,0.3,0.1,0.4,0.2c0.5,0.2,0.8,0.7,0.8,1.2V18z M12,17.4C12,17.4,12,17.4,12,17.4
				C12,17.4,12,17.4,12,17.4z M15.6,14.1C15.6,14.1,15.6,14.1,15.6,14.1C15.6,14.1,15.6,14.1,15.6,14.1z M15.8,13.6
				C15.8,13.6,15.8,13.6,15.8,13.6C15.8,13.6,15.8,13.6,15.8,13.6z M16.7,10.6L16.7,10.6L16.7,10.6z M15.8,9.3
				C15.8,9.3,15.8,9.3,15.8,9.3C15.8,9.3,15.8,9.3,15.8,9.3z M12,5.4C12,5.4,12,5.4,12,5.4C12,5.4,12,5.4,12,5.4z"/>
		</g>
		<g class="st3">
			<path class="st2" d="M9.8,14.8c-1.8,0-3.3-1.5-3.3-3.3S8,8.1,9.8,8.1c1.8,0,3.3,1.5,3.3,3.3S11.7,14.8,9.8,14.8z M9.8,9.7
				c-1,0-1.8,0.8-1.8,1.8c0,1,0.8,1.8,1.8,1.8s1.8-0.8,1.8-1.8C11.6,10.5,10.8,9.7,9.8,9.7z"/>
		</g>
	</g>
</g>
</svg>
