<?xml version="1.0" encoding="utf-8"?>
<!-- Generator: Adobe Illustrator 24.1.1, SVG Export Plug-In . SVG Version: 6.00 Build 0)  -->
<svg version="1.1" xmlns="http://www.w3.org/2000/svg" xmlns:xlink="http://www.w3.org/1999/xlink" x="0px" y="0px"
	 viewBox="0 0 38.1 39.5" style="enable-background:new 0 0 38.1 39.5;" xml:space="preserve">
<style type="text/css">
	.st0{fill:#FFFFFF;}
	.st1{fill:#440099;}
	.st2{opacity:0.4;}
	.st3{fill:#FF6A13;}
</style>
<g id="estructura">
	<g>
		<g>
			<path class="st0" d="M22.9,32.9H8.5C6,32.9,4,30.8,4,28.3V7.5C4,5,6,2.9,8.5,2.9h14.4c2.5,0,4.6,2.1,4.6,4.6v20.8
				C27.5,30.8,25.4,32.9,22.9,32.9z"/>
			<path class="st1" d="M24.3,34.2H7.1c-2.4,0-4.4-2-4.4-4.4V6.1c0-2.4,2-4.4,4.4-4.4h17.2c2.4,0,4.4,2,4.4,4.4v23.7
				C28.8,32.2,26.8,34.2,24.3,34.2z M7.1,4.2c-1,0-1.9,0.8-1.9,1.9v23.7c0,1,0.8,1.9,1.9,1.9h17.2c1,0,1.9-0.8,1.9-1.9V6.1
				c0-1-0.8-1.9-1.9-1.9H7.1z"/>
		</g>
	</g>
</g>
<g id="lineas">
	<g>
		<g class="st2">
			<path class="st1" d="M18.1,28.7H8.7c-0.8,0-1.5-0.7-1.5-1.5v-0.8c0-0.8,0.7-1.5,1.5-1.5h9.4c0.8,0,1.5,0.7,1.5,1.5v0.8
				C19.6,28,19,28.7,18.1,28.7z"/>
		</g>
		<g class="st2">
			<path class="st1" d="M18.1,23.5H8.7c-0.8,0-1.5-0.7-1.5-1.5v-0.8c0-0.8,0.7-1.5,1.5-1.5h9.4c0.8,0,1.5,0.7,1.5,1.5V22
				C19.6,22.8,19,23.5,18.1,23.5z"/>
		</g>
	</g>
	<g>
		<g>
			<path class="st3" d="M9.1,16.6c-0.3,0-0.6-0.1-0.8-0.3c-0.4-0.4-0.4-1.2,0-1.6l2.1-2.1c0.2-0.2,0.5-0.3,0.8-0.3s0.6,0.1,0.8,0.3
				l1.2,1.2l2.5-2.5c0.2-0.2,0.5-0.3,0.8-0.3s0.6,0.1,0.8,0.3l1,1L22,8.4c0.2-0.2,0.5-0.3,0.8-0.3c0.3,0,0.6,0.1,0.8,0.3
				c0.4,0.4,0.4,1.2,0,1.6l-4.5,4.5c-0.2,0.2-0.5,0.3-0.8,0.3c-0.3,0-0.6-0.1-0.8-0.3l-1-1L14,16.1c-0.2,0.2-0.5,0.3-0.8,0.3
				c-0.3,0-0.6-0.1-0.8-0.3l-1.2-1.2l-1.3,1.3C9.7,16.4,9.4,16.6,9.1,16.6z"/>
		</g>
		<g>
			<path class="st3" d="M22.8,8.5c0.2,0,0.4,0.1,0.5,0.2c0.3,0.3,0.3,0.7,0,1l-4.5,4.5c-0.1,0.1-0.3,0.2-0.5,0.2
				c-0.2,0-0.4-0.1-0.5-0.2L16.5,13l-2.8,2.8c-0.1,0.1-0.3,0.2-0.5,0.2c-0.2,0-0.4-0.1-0.5-0.2l-1.5-1.5l-1.6,1.6
				c-0.1,0.1-0.3,0.2-0.5,0.2c-0.2,0-0.4-0.1-0.5-0.2c-0.3-0.3-0.3-0.7,0-1l2.1-2.1c0.1-0.1,0.3-0.2,0.5-0.2c0.2,0,0.4,0.1,0.5,0.2
				l1.5,1.5l2.8-2.8c0.1-0.1,0.3-0.2,0.5-0.2c0.2,0,0.4,0.1,0.5,0.2l1.3,1.3l4-4C22.4,8.6,22.6,8.5,22.8,8.5 M22.8,7.7
				c-0.4,0-0.8,0.2-1.1,0.5l-3.4,3.4l-0.7-0.7c-0.3-0.3-0.7-0.5-1.1-0.5c-0.4,0-0.8,0.2-1.1,0.5L13.2,13l-0.9-0.9
				c-0.3-0.3-0.7-0.5-1.1-0.5c-0.4,0-0.8,0.2-1.1,0.5l-2.1,2.1c-0.6,0.6-0.6,1.6,0,2.2C8.2,16.8,8.6,17,9.1,17
				c0.4,0,0.8-0.2,1.1-0.5l1-1l0.9,0.9c0.3,0.3,0.7,0.5,1.1,0.5c0.4,0,0.8-0.2,1.1-0.5l2.2-2.2l0.7,0.7c0.3,0.3,0.7,0.5,1.1,0.5
				c0.4,0,0.8-0.2,1.1-0.5l4.5-4.5c0.6-0.6,0.6-1.6,0-2.2C23.6,7.8,23.2,7.7,22.8,7.7L22.8,7.7z"/>
		</g>
	</g>
</g>
<g id="tuerca">
	<g>
		<g>
			<g>
				<path class="st3" d="M29,35.3c-0.6,0-1.2-0.3-1.5-0.8c-0.3,0-0.6,0.1-1,0.1c-0.3,0-0.6,0-1-0.1c-0.4,0.5-0.9,0.8-1.5,0.8
					c-0.3,0-0.7-0.1-1-0.3l-1.3-0.8c-0.4-0.3-0.8-0.7-0.9-1.2c-0.1-0.4-0.1-0.9,0.1-1.3c-0.4-0.5-0.7-1.1-1-1.7
					c-1-0.1-1.7-0.9-1.7-1.9v-1.5c0-1,0.8-1.8,1.7-1.9c0.2-0.6,0.6-1.1,1-1.7c-0.2-0.4-0.2-0.8-0.1-1.3c0.1-0.5,0.4-0.9,0.9-1.2
					l1.3-0.8c0.3-0.2,0.6-0.3,0.9-0.3c0.6,0,1.2,0.3,1.5,0.8c0.3,0,0.6-0.1,1-0.1c0.3,0,0.6,0,1,0.1c0.4-0.5,0.9-0.8,1.5-0.8
					c0.3,0,0.7,0.1,1,0.3l1.3,0.8c0.4,0.2,0.8,0.7,0.9,1.2c0.1,0.4,0.1,0.9-0.1,1.3c0.4,0.5,0.7,1.1,1,1.7c1,0.1,1.7,0.9,1.7,1.9
					v1.5c0,1-0.8,1.8-1.7,1.9c-0.2,0.6-0.6,1.1-1,1.7c0.2,0.4,0.2,0.8,0.1,1.3c-0.1,0.5-0.4,0.9-0.9,1.1L29.9,35
					C29.7,35.2,29.3,35.3,29,35.3z"/>
			</g>
			<g>
				<path class="st0" d="M29,21.5C29,21.5,29.1,21.5,29,21.5l1.4,0.8c0.1,0,0.1,0.1,0.1,0.1c0,0,0,0.1,0,0.1
					c-0.3,0.5-0.2,1.2,0.1,1.6c0.4,0.4,0.6,0.9,0.8,1.5c0.2,0.6,0.8,0.9,1.4,0.9c0.1,0,0.2,0.1,0.2,0.2v1.5c0,0.1-0.1,0.2-0.2,0.2
					c-0.6,0-1.1,0.4-1.3,0.9c-0.2,0.5-0.5,1-0.8,1.5c-0.4,0.5-0.4,1.1-0.1,1.6c0,0.1,0,0.1,0,0.1c0,0,0,0.1-0.1,0.1l-1.3,0.8
					c0,0-0.1,0-0.1,0c-0.1,0-0.1,0-0.2-0.1c-0.3-0.4-0.7-0.7-1.3-0.7c-0.1,0-0.2,0-0.2,0c-0.3,0-0.6,0.1-0.8,0.1
					c-0.3,0-0.6,0-0.8-0.1c-0.1,0-0.2,0-0.2,0c-0.5,0-1,0.3-1.3,0.7c0,0.1-0.1,0.1-0.2,0.1c0,0-0.1,0-0.1,0l-1.3-0.8
					c-0.1,0-0.1-0.1-0.1-0.1c0,0,0-0.1,0-0.1c0.3-0.5,0.2-1.2-0.1-1.6c-0.4-0.4-0.6-0.9-0.8-1.5c-0.2-0.6-0.8-0.9-1.4-0.9
					c-0.1,0-0.2-0.1-0.2-0.2v-1.5c0-0.1,0.1-0.2,0.2-0.2c0.6,0,1.1-0.4,1.3-0.9c0.2-0.5,0.5-1,0.8-1.5c0.4-0.5,0.4-1.1,0.1-1.6
					c0-0.1,0-0.1,0-0.1c0,0,0-0.1,0.1-0.1l1.3-0.8c0,0,0.1,0,0.1,0c0.1,0,0.1,0,0.2,0.1c0,0,0,0,0,0c0.3,0.4,0.7,0.7,1.3,0.7
					c0.1,0,0.2,0,0.2,0c0.3,0,0.6-0.1,0.8-0.1c0.3,0,0.6,0,0.8,0.1c0.1,0,0.2,0,0.2,0c0.5,0,1-0.3,1.3-0.7c0,0,0,0,0,0
					C28.9,21.5,28.9,21.5,29,21.5 M29,18.1c-0.8,0-1.6,0.3-2.2,0.7c-0.1,0-0.2,0-0.3,0c-0.1,0-0.2,0-0.3,0c-0.6-0.5-1.4-0.7-2.2-0.7
					c-0.6,0-1.3,0.2-1.8,0.5l-1.3,0.8c-0.8,0.5-1.4,1.2-1.7,2.2c-0.1,0.5-0.2,0.9-0.1,1.4c-0.1,0.2-0.2,0.4-0.3,0.5
					c-1.3,0.5-2.2,1.8-2.2,3.3v1.5c0,1.5,0.9,2.8,2.2,3.3c0.1,0.2,0.2,0.4,0.3,0.5c-0.1,0.5,0,0.9,0.1,1.4c0.2,0.9,0.8,1.7,1.6,2.2
					l1.4,0.8c0.5,0.3,1.2,0.5,1.8,0.5c0.8,0,1.6-0.3,2.2-0.7c0.1,0,0.2,0,0.3,0c0.1,0,0.2,0,0.3,0c0.6,0.5,1.4,0.7,2.2,0.7
					c0.6,0,1.3-0.2,1.8-0.5l1.3-0.8c0.8-0.5,1.4-1.3,1.7-2.2c0.1-0.5,0.2-0.9,0.1-1.4c0.1-0.2,0.2-0.4,0.3-0.5
					c1.3-0.5,2.2-1.8,2.2-3.3v-1.5c0-1.5-0.9-2.8-2.2-3.3c-0.1-0.2-0.2-0.4-0.3-0.5c0.1-0.5,0-0.9-0.1-1.4c-0.2-0.9-0.8-1.7-1.7-2.2
					l-1.3-0.8C30.3,18.3,29.6,18.1,29,18.1L29,18.1z"/>
			</g>
		</g>
		<g>
			<g>
				<g>
					<path class="st0" d="M29,34.4c-0.4,0-0.7-0.2-0.9-0.5c-0.1-0.2-0.3-0.3-0.5-0.3c0,0-0.1,0-0.1,0c-0.3,0.1-0.7,0.1-1,0.1
						c-0.3,0-0.7,0-1-0.1c0,0-0.1,0-0.1,0c-0.2,0-0.4,0.1-0.5,0.3c-0.2,0.3-0.5,0.5-0.9,0.5c-0.2,0-0.4,0-0.5-0.1l-1.3-0.8
						c-0.2-0.1-0.4-0.4-0.5-0.6c-0.1-0.3,0-0.6,0.1-0.8c0.1-0.2,0.1-0.5-0.1-0.7c-0.4-0.5-0.7-1.1-1-1.7c-0.1-0.2-0.3-0.4-0.6-0.4
						c-0.6,0-1-0.5-1-1v-1.5c0-0.6,0.5-1,1-1c0.2,0,0.5-0.2,0.6-0.4c0.2-0.6,0.6-1.2,1-1.7c0.2-0.2,0.2-0.5,0.1-0.7
						c-0.1-0.2-0.2-0.5-0.1-0.8c0.1-0.3,0.2-0.5,0.5-0.6l1.3-0.8c0.2-0.1,0.3-0.1,0.5-0.1c0.4,0,0.7,0.2,0.9,0.5l0,0.1
						c0.1,0.2,0.3,0.3,0.5,0.3c0,0,0.1,0,0.1,0c0.3-0.1,0.7-0.1,1-0.1c0.3,0,0.7,0,1,0.1c0,0,0.1,0,0.1,0c0.2,0,0.4-0.1,0.5-0.3
						c0.2-0.3,0.5-0.5,0.9-0.5c0.2,0,0.4,0.1,0.5,0.1l1.3,0.8c0.2,0.1,0.4,0.4,0.5,0.6c0.1,0.3,0,0.6-0.1,0.8
						c-0.1,0.2-0.1,0.5,0.1,0.7c0.4,0.5,0.7,1.1,1,1.7c0.1,0.2,0.3,0.4,0.6,0.4c0.6,0,1,0.5,1,1v1.5c0,0.6-0.5,1-1,1
						c-0.2,0-0.5,0.2-0.6,0.4c-0.2,0.6-0.6,1.2-1,1.7c-0.2,0.2-0.2,0.5-0.1,0.7c0.1,0.2,0.2,0.5,0.1,0.8c-0.1,0.3-0.2,0.5-0.5,0.6
						l-1.3,0.8C29.4,34.4,29.2,34.4,29,34.4z"/>
				</g>
				<g>
					<path class="st3" d="M29,21.5C29,21.5,29.1,21.5,29,21.5l1.4,0.8c0.1,0,0.1,0.1,0.1,0.1c0,0,0,0.1,0,0.1
						c-0.3,0.5-0.2,1.2,0.1,1.6c0.4,0.4,0.6,0.9,0.8,1.5c0.2,0.6,0.8,0.9,1.4,0.9c0.1,0,0.2,0.1,0.2,0.2v1.5c0,0.1-0.1,0.2-0.2,0.2
						c-0.6,0-1.1,0.4-1.3,0.9c-0.2,0.5-0.5,1-0.8,1.5c-0.4,0.5-0.4,1.1-0.1,1.6c0,0.1,0,0.1,0,0.1c0,0,0,0.1-0.1,0.1l-1.3,0.8
						c0,0-0.1,0-0.1,0c-0.1,0-0.1,0-0.2-0.1c-0.3-0.4-0.7-0.7-1.3-0.7c-0.1,0-0.2,0-0.2,0c-0.3,0-0.6,0.1-0.8,0.1
						c-0.3,0-0.6,0-0.8-0.1c-0.1,0-0.2,0-0.2,0c-0.5,0-1,0.3-1.3,0.7c0,0.1-0.1,0.1-0.2,0.1c0,0-0.1,0-0.1,0l-1.3-0.8
						c-0.1,0-0.1-0.1-0.1-0.1c0,0,0-0.1,0-0.1c0.3-0.5,0.2-1.2-0.1-1.6c-0.4-0.4-0.6-0.9-0.8-1.5c-0.2-0.6-0.8-0.9-1.4-0.9
						c-0.1,0-0.2-0.1-0.2-0.2v-1.5c0-0.1,0.1-0.2,0.2-0.2c0.6,0,1.1-0.4,1.3-0.9c0.2-0.5,0.5-1,0.8-1.5c0.4-0.5,0.4-1.1,0.1-1.6
						c0-0.1,0-0.1,0-0.1c0,0,0-0.1,0.1-0.1l1.3-0.8c0,0,0.1,0,0.1,0c0.1,0,0.1,0,0.2,0.1c0,0,0,0,0,0c0.3,0.4,0.7,0.7,1.3,0.7
						c0.1,0,0.2,0,0.2,0c0.3,0,0.6-0.1,0.8-0.1c0.3,0,0.6,0,0.8,0.1c0.1,0,0.2,0,0.2,0c0.5,0,1-0.3,1.3-0.7c0,0,0,0,0,0
						C28.9,21.5,28.9,21.5,29,21.5 M29,19.8c-0.6,0-1.2,0.3-1.5,0.8c-0.3,0-0.6-0.1-1-0.1c-0.3,0-0.6,0-1,0.1
						c-0.4-0.5-0.9-0.8-1.5-0.8c-0.3,0-0.7,0.1-1,0.3l-1.3,0.8c-0.4,0.2-0.7,0.7-0.9,1.1c-0.1,0.4-0.1,0.9,0.1,1.3
						c-0.4,0.5-0.7,1.1-1,1.7c-1,0.1-1.7,0.9-1.7,1.9v1.5c0,1,0.8,1.8,1.7,1.9c0.2,0.6,0.6,1.1,1,1.7c-0.2,0.4-0.2,0.8-0.1,1.3
						c0.1,0.5,0.4,0.9,0.9,1.1l1.3,0.8c0.3,0.2,0.6,0.3,0.9,0.3c0.6,0,1.2-0.3,1.5-0.8c0.3,0,0.6,0.1,1,0.1s0.6,0,1-0.1
						c0.4,0.5,0.9,0.8,1.5,0.8c0.3,0,0.7-0.1,1-0.3l1.3-0.8c0.4-0.3,0.7-0.7,0.9-1.1c0.1-0.4,0.1-0.9-0.1-1.3c0.4-0.5,0.7-1.1,1-1.7
						c1-0.1,1.7-0.9,1.7-1.9v-1.5c0-1-0.8-1.8-1.7-1.9c-0.2-0.6-0.6-1.1-1-1.7c0.2-0.4,0.2-0.8,0.1-1.3c-0.1-0.5-0.4-0.9-0.9-1.1
						L29.9,20C29.7,19.9,29.3,19.8,29,19.8L29,19.8z"/>
				</g>
			</g>
			<g>
				<path class="st0" d="M33,28.3c0,0.1-0.1,0.2-0.2,0.2c-0.6,0-1.1,0.4-1.3,0.9c-0.2,0.5-0.5,1-0.8,1.5c-0.4,0.5-0.4,1.1-0.1,1.6
					c0,0.1,0,0.1,0,0.1c0,0,0,0.1-0.1,0.1l-1.3,0.8c-0.1,0.1-0.2,0-0.3-0.1c-0.3-0.5-0.9-0.8-1.5-0.7c-0.6,0.1-1.1,0.1-1.7,0
					c-0.6-0.1-1.2,0.2-1.5,0.7c-0.1,0.1-0.2,0.1-0.3,0.1l-1.3-0.8c-0.1,0-0.1-0.1-0.1-0.1c0,0,0-0.1,0-0.1c0.3-0.5,0.2-1.2-0.1-1.6
					c-0.4-0.4-0.6-0.9-0.8-1.5c-0.2-0.6-0.8-0.9-1.4-0.9c-0.1,0-0.2-0.1-0.2-0.2v-1.5c0-0.1,0.1-0.2,0.2-0.2c0.6,0,1.1-0.4,1.3-0.9
					c0.2-0.5,0.5-1,0.8-1.5c0.4-0.5,0.4-1.1,0.1-1.6c0-0.1,0-0.1,0-0.1c0,0,0-0.1,0.1-0.1l1.3-0.8c0,0,0.1,0,0.1,0
					c0.1,0,0.1,0,0.2,0.1c0,0,0,0,0,0c0.3,0.5,0.9,0.8,1.5,0.7c0.6-0.1,1.1-0.1,1.7,0c0.6,0.1,1.2-0.2,1.5-0.7c0,0,0,0,0,0
					c0.1-0.1,0.2-0.1,0.3-0.1l1.3,0.8c0.1,0,0.1,0.1,0.1,0.1c0,0,0,0.1,0,0.1c-0.3,0.5-0.2,1.2,0.1,1.6c0.4,0.4,0.6,0.9,0.8,1.5
					c0.2,0.6,0.8,0.9,1.4,0.9c0.1,0,0.2,0.1,0.2,0.2V28.3z"/>
			</g>
			<g>
				<path class="st3" d="M26.5,24.7c-1.6,0-2.9,1.3-2.9,2.9c0,1.6,1.3,2.9,2.9,2.9c1.6,0,2.9-1.3,2.9-2.9
					C29.4,26,28.1,24.7,26.5,24.7z M26.5,29.1c-0.9,0-1.6-0.7-1.6-1.6s0.7-1.6,1.6-1.6s1.6,0.7,1.6,1.6S27.4,29.1,26.5,29.1z"/>
			</g>
		</g>
	</g>
</g>
</svg>
