<?xml version="1.0" encoding="utf-8"?>
<!-- Generator: Adobe Illustrator 24.1.1, SVG Export Plug-In . SVG Version: 6.00 Build 0)  -->
<svg version="1.1" xmlns="http://www.w3.org/2000/svg" xmlns:xlink="http://www.w3.org/1999/xlink" x="0px" y="0px"
	 viewBox="0 0 43.9 43.9" style="enable-background:new 0 0 43.9 43.9;" xml:space="preserve">
<style type="text/css">
	.st0{fill:#440099;}
	.st1{opacity:0.4;}
	.st2{fill:#FF6A13;}
</style>
<g id="estructura">
	<g>
		<path class="st0" d="M35.1,40c-1,0-1.8-0.8-1.8-1.8V21.5c0-1,0.8-1.8,1.8-1.8h0.8L21.8,7.9L7.7,19.7h0.8c1,0,1.8,0.8,1.8,1.8v16.8
			c0,1-0.8,1.8-1.8,1.8s-1.8-0.8-1.8-1.8v-15H2.8c-0.7,0-1.4-0.5-1.7-1.2c-0.3-0.7,0-1.5,0.5-2l19-15.9c0.7-0.6,1.6-0.6,2.3,0
			l19,15.9c0.6,0.5,0.8,1.3,0.5,2c-0.3,0.7-0.9,1.2-1.7,1.2h-3.9v15C36.9,39.2,36.1,40,35.1,40z"/>
	</g>
</g>
<g id="chimenea">
	<g class="st1">
		<path class="st0" d="M32,14.8c-1,0-1.8-0.8-1.8-1.8V7.6c0-1,0.8-1.8,1.8-1.8c1,0,1.8,0.8,1.8,1.8V13C33.8,14,33,14.8,32,14.8z"/>
	</g>
</g>
<g id="puerta">
	<g class="st1">
		<path class="st0" d="M17.6,40.1c-1,0-1.8-0.8-1.8-1.8v-8.9c0-1,0.8-1.8,1.8-1.8h7.8c1,0,1.8,0.8,1.8,1.8v8.6c0,1-0.8,1.8-1.8,1.8
			c-1,0-1.8-0.8-1.8-1.8v-6.8h-4.3v7.1C19.4,39.3,18.6,40.1,17.6,40.1z"/>
	</g>
</g>
<g id="ventana">
	<g>
		<path class="st2" d="M29.1,24.9h-1.7c-1,0-1.8-0.8-1.8-1.8s0.8-1.8,1.8-1.8h1.7c1,0,1.8,0.8,1.8,1.8S30.1,24.9,29.1,24.9z"/>
	</g>
</g>
</svg>
