<?xml version="1.0" encoding="utf-8"?>
<!-- Generator: Adobe Illustrator 24.1.1, SVG Export Plug-In . SVG Version: 6.00 Build 0)  -->
<svg version="1.1" xmlns="http://www.w3.org/2000/svg" xmlns:xlink="http://www.w3.org/1999/xlink" x="0px" y="0px"
	 viewBox="0 0 92 38.1" style="enable-background:new 0 0 92 38.1;" xml:space="preserve">
<style type="text/css">
	.st0{fill:#FF6A13;}
</style>
<g id="m">
	<path class="st0" d="M92,12.8C91.7,6.6,87.4,1,81,0.4c-4.5-0.5-8.4,0.8-11.3,4.5l-1,1.3C65-1.1,53.7-1.7,49,4.6
		c0.2-2.4-1.6-4.4-4-4.6c-0.1,0-0.1,0-0.2,0c-2.3,0-4.2,1.9-4.2,4.2c0,0,0,0.1,0,0.1v29.6c0,2.3,1.9,4.2,4.2,4.2s4.2-1.9,4.2-4.2
		V15.8c0.1-3.9,2.3-7.6,6.5-7.7s6.4,3.7,6.5,7.7v18.1c0.4,2.3,2.6,4,4.9,3.6c1.9-0.3,3.3-1.7,3.6-3.6v-18c0-3.8,2-7.6,6.3-7.7
		s6.7,3.6,6.7,7.8v17.9c0.4,2.3,2.6,4,4.9,3.6c1.9-0.3,3.3-1.7,3.6-3.6C92,33.9,92.1,15.6,92,12.8z"/>
</g>
<g id="x">
	<g>
		<path class="st0" d="M37.2,6.7C38.6,5,38.4,2.5,36.7,1c-1.8-1.4-4.3-1.2-5.8,0.5l-9.4,11.3l5.3,6.3L37.2,6.7z"/>
		<path class="st0" d="M26.8,19.1l-5.3,6.3l9.3,11.2c1.5,1.7,4,1.9,5.8,0.5l0,0c1.7-1.5,1.9-4,0.5-5.8L26.8,19.1z"/>
		<polygon class="st0" points="10.8,0 10.2,0 26.2,19.1 10.3,38 10.9,38 26.8,19.1 		"/>
		<polygon class="st0" points="9.1,0 8.5,0 24.5,19.1 8.6,38 9.2,38 25.1,19.1 		"/>
		<polygon class="st0" points="7.4,0 6.8,0 22.8,19.1 6.9,38 7.5,38 23.4,19.1 		"/>
		<polygon class="st0" points="5.7,0 5.1,0 21.1,19.1 5.2,38 5.8,38 21.7,19.1 		"/>
		<polygon class="st0" points="4,0 3.4,0 19.5,19.1 3.6,38 4.1,38 20,19.1 		"/>
		<polygon class="st0" points="2.3,0 1.7,0 17.8,19.1 1.9,38 2.4,38 18.3,19.1 		"/>
		<polygon class="st0" points="0.6,0 0,0 16.1,19.1 0.2,38 0.7,38 16.6,19.1 		"/>
	</g>
</g>
</svg>
