<?xml version="1.0" encoding="utf-8"?>
<!-- Generator: Adobe Illustrator 24.1.1, SVG Export Plug-In . SVG Version: 6.00 Build 0)  -->
<svg version="1.1" xmlns="http://www.w3.org/2000/svg" xmlns:xlink="http://www.w3.org/1999/xlink" x="0px" y="0px"
	 viewBox="0 0 98.1 43.9" style="enable-background:new 0 0 98.1 43.9;" xml:space="preserve">
<style type="text/css">
	.st0{fill:url(#SVGID_1_);}
	.st1{fill:url(#SVGID_2_);}
	.st2{fill:url(#SVGID_3_);}
	.st3{fill:#FC6C0F;}
	.st4{fill:#440099;}
</style>
<g id="o">
	
		<linearGradient id="SVGID_1_" gradientUnits="userSpaceOnUse" x1="57.75" y1="23.85" x2="98.0653" y2="23.85" gradientTransform="matrix(1 0 0 -1 0 46)">
		<stop  offset="0" style="stop-color:#4C2396"/>
		<stop  offset="1" style="stop-color:#5D39A0"/>
	</linearGradient>
	<path class="st0" d="M67.2,41.2c-3-1.7-5.5-4.4-7-7.5c-1.7-3.6-2.5-7.6-2.4-11.6c-0.1-4,0.7-7.9,2.4-11.5c1.5-3.2,3.9-5.8,7-7.5
		c3.3-1.9,7-2.8,10.8-2.7c3.7-0.1,7.4,0.8,10.7,2.7c3,1.7,5.5,4.4,7,7.5c1.7,3.6,2.5,7.5,2.4,11.5c0.1,4-0.8,8-2.5,11.6
		c-1.5,3.2-3.9,5.8-7,7.5C85.4,43,81.7,44,78,43.9C74.2,44,70.5,43.1,67.2,41.2z M87.1,33.7c2.2-2.7,3.2-6.6,3.2-11.6
		s-1-8.8-3.2-11.5c-2.2-2.7-5.6-4.2-9.1-4c-4,0-7,1.3-9.2,4s-3.3,6.5-3.3,11.5s1.1,8.9,3.3,11.6s5.2,4,9.2,4
		C81.5,37.9,84.9,36.4,87.1,33.7z"/>
</g>
<g id="i">
	
		<linearGradient id="SVGID_2_" gradientUnits="userSpaceOnUse" x1="45.1018" y1="10.27" x2="45.1018" y2="35.04" gradientTransform="matrix(1 0 0 -1 0 46)">
		<stop  offset="0" style="stop-color:#4C2396"/>
		<stop  offset="1" style="stop-color:#5D39A0"/>
	</linearGradient>
	<path class="st1" d="M42.3,42.6c-0.7-0.7-1.1-1.8-1.1-2.8V4.1c0-1,0.4-2.1,1.1-2.8c0.7-0.7,1.8-1.1,2.8-1.1c1.1,0,2.1,0.4,2.9,1.1
		c0.7,0.8,1,1.8,1,2.8v35.7c0,1-0.3,2-1,2.8c-0.8,0.7-1.8,1.1-2.9,1.1C44.1,43.7,43,43.3,42.3,42.6z"/>
</g>
<g id="s">
	
		<linearGradient id="SVGID_3_" gradientUnits="userSpaceOnUse" x1="17.1535" y1="11.92" x2="17.1535" y2="36.48" gradientTransform="matrix(1 0 0 -1 0 46)">
		<stop  offset="0" style="stop-color:#4C2396"/>
		<stop  offset="1" style="stop-color:#5D39A0"/>
	</linearGradient>
	<path class="st2" d="M8.5,42.6C6,42,3.7,40.8,1.7,39.3c-0.9-0.7-1.4-1.8-1.4-2.9c0-0.8,0.3-1.6,0.8-2.3c0.4-0.6,1.1-0.9,1.8-0.9
		c0.9,0.1,1.7,0.4,2.4,0.9c1.7,1.2,3.5,2.1,5.5,2.7c2,0.6,4.2,0.9,6.3,0.8c2.4,0.1,4.7-0.4,6.8-1.5c1.5-1,2.5-2.7,2.4-4.5
		c0-1.5-0.8-2.9-2.2-3.6c-2.4-1.1-4.8-1.9-7.4-2.4c-3-0.6-5.9-1.5-8.7-2.7c-2-0.8-3.7-2.1-5-3.8c-1.2-1.8-1.8-3.9-1.7-6
		c0-2.4,0.7-4.8,2.1-6.8c1.5-2.1,3.5-3.6,5.9-4.6C12,0.6,14.9,0,17.8,0C23.6,0,28.3,1.5,32,4.6c0.4,0.4,0.8,0.8,1.1,1.3
		c0.2,0.5,0.3,1.1,0.3,1.6c0,0.8-0.2,1.6-0.7,2.2c-0.4,0.6-1.1,1-1.8,1l-1.1-0.2c-0.5-0.1-1-0.4-1.4-0.7c-1.5-1.1-3.1-2-4.8-2.7
		c-1.9-0.6-3.8-0.9-5.8-0.8c-2.3-0.1-4.5,0.4-6.5,1.6c-1.6,1-2.5,2.8-2.4,4.7c0,1.6,0.8,3,2.1,3.8c2.3,1.2,4.8,2,7.3,2.5
		c3,0.6,5.9,1.5,8.7,2.7c2,0.8,3.8,2.1,5.2,3.8c1.2,1.6,1.9,3.6,1.8,5.7c0,2.4-0.7,4.8-2.1,6.7c-1.5,2-3.6,3.5-5.9,4.5
		c-2.8,1.1-5.7,1.6-8.7,1.6C14.3,43.9,11.3,43.5,8.5,42.6z"/>
	<path class="st3" d="M30.8,7.2c-0.2-0.2-0.5-0.2-0.7,0L4.8,33.7c-0.5-0.3-1.1-0.5-1.7-0.5c-1.7,0-3.1,1.4-3.1,3.1
		c0,1.7,1.4,3.1,3.1,3.1s3.1-1.4,3.1-3.1c0-0.7-0.2-1.3-0.6-1.8L30.9,7.9c0.2-0.1,0.2-0.4,0.1-0.6C30.9,7.3,30.9,7.2,30.8,7.2z"/>
	<circle class="st4" cx="30.5" cy="7.6" r="3.1"/>
</g>
</svg>
